G04 EAGLE Gerber RS-274X export*
G75*
%MOMM*%
%FSLAX34Y34*%
%LPD*%
%INTop Copper*%
%IPPOS*%
%AMOC8*
5,1,8,0,0,1.08239X$1,22.5*%
G01*
%ADD10C,0.130000*%
%ADD11C,0.152400*%
%ADD12R,0.800000X0.800000*%
%ADD13C,1.524000*%
%ADD14R,1.300000X0.300000*%
%ADD15C,1.108000*%
%ADD16R,1.300000X0.600000*%
%ADD17C,0.756400*%
%ADD18C,0.254000*%
%ADD19C,0.508000*%
%ADD20C,0.406400*%
%ADD21C,0.609600*%


D10*
X0Y571400D02*
X-48710Y571400D01*
X-48710Y469900D02*
X0Y469900D01*
X-29210Y470550D02*
X-29210Y570750D01*
X-32402Y545400D01*
X-26018Y545400D01*
X-29210Y570750D01*
X-30510Y545400D01*
X-27910Y545400D02*
X-29210Y570750D01*
X-31810Y545400D01*
X-26610Y545400D02*
X-29210Y570750D01*
X-32402Y495900D02*
X-29210Y470550D01*
X-32402Y495900D02*
X-26018Y495900D01*
X-29210Y470550D01*
X-30510Y495900D01*
X-27910Y495900D02*
X-29210Y470550D01*
X-31810Y495900D01*
X-26610Y495900D02*
X-29210Y470550D01*
D11*
X-48361Y489502D02*
X-51973Y494018D01*
X-35717Y494018D01*
X-35717Y498533D02*
X-35717Y489502D01*
X-43845Y505133D02*
X-44165Y505137D01*
X-44484Y505148D01*
X-44804Y505167D01*
X-45122Y505194D01*
X-45440Y505228D01*
X-45757Y505270D01*
X-46073Y505320D01*
X-46388Y505377D01*
X-46701Y505441D01*
X-47013Y505513D01*
X-47323Y505592D01*
X-47630Y505679D01*
X-47936Y505773D01*
X-48239Y505874D01*
X-48540Y505983D01*
X-48838Y506098D01*
X-49134Y506221D01*
X-49426Y506351D01*
X-49715Y506488D01*
X-49716Y506488D02*
X-49824Y506527D01*
X-49931Y506570D01*
X-50036Y506616D01*
X-50140Y506667D01*
X-50242Y506720D01*
X-50342Y506777D01*
X-50440Y506838D01*
X-50535Y506902D01*
X-50629Y506969D01*
X-50720Y507040D01*
X-50809Y507113D01*
X-50895Y507190D01*
X-50978Y507269D01*
X-51059Y507351D01*
X-51137Y507436D01*
X-51211Y507524D01*
X-51283Y507614D01*
X-51351Y507706D01*
X-51417Y507801D01*
X-51479Y507898D01*
X-51537Y507997D01*
X-51593Y508099D01*
X-51644Y508201D01*
X-51692Y508306D01*
X-51737Y508412D01*
X-51778Y508520D01*
X-51815Y508629D01*
X-51848Y508739D01*
X-51877Y508851D01*
X-51903Y508963D01*
X-51925Y509076D01*
X-51942Y509190D01*
X-51956Y509304D01*
X-51966Y509419D01*
X-51972Y509534D01*
X-51974Y509649D01*
X-51973Y509649D02*
X-51971Y509764D01*
X-51965Y509879D01*
X-51955Y509994D01*
X-51941Y510108D01*
X-51924Y510222D01*
X-51902Y510335D01*
X-51876Y510447D01*
X-51847Y510559D01*
X-51814Y510669D01*
X-51777Y510778D01*
X-51736Y510886D01*
X-51691Y510992D01*
X-51643Y511097D01*
X-51592Y511199D01*
X-51536Y511300D01*
X-51478Y511400D01*
X-51416Y511497D01*
X-51351Y511591D01*
X-51282Y511684D01*
X-51210Y511774D01*
X-51136Y511862D01*
X-51058Y511947D01*
X-50977Y512029D01*
X-50894Y512108D01*
X-50808Y512185D01*
X-50719Y512258D01*
X-50628Y512329D01*
X-50534Y512396D01*
X-50439Y512460D01*
X-50341Y512521D01*
X-50241Y512578D01*
X-50139Y512631D01*
X-50035Y512682D01*
X-49930Y512728D01*
X-49823Y512771D01*
X-49715Y512810D01*
X-49715Y512809D02*
X-49426Y512946D01*
X-49134Y513076D01*
X-48838Y513199D01*
X-48540Y513314D01*
X-48239Y513423D01*
X-47936Y513524D01*
X-47630Y513618D01*
X-47323Y513705D01*
X-47013Y513784D01*
X-46701Y513856D01*
X-46388Y513920D01*
X-46073Y513977D01*
X-45757Y514027D01*
X-45440Y514069D01*
X-45122Y514103D01*
X-44804Y514130D01*
X-44484Y514149D01*
X-44165Y514160D01*
X-43845Y514164D01*
X-43845Y505134D02*
X-43525Y505138D01*
X-43206Y505149D01*
X-42886Y505168D01*
X-42568Y505195D01*
X-42250Y505229D01*
X-41933Y505271D01*
X-41617Y505321D01*
X-41302Y505378D01*
X-40989Y505442D01*
X-40677Y505514D01*
X-40367Y505593D01*
X-40060Y505680D01*
X-39754Y505774D01*
X-39451Y505875D01*
X-39150Y505984D01*
X-38852Y506099D01*
X-38556Y506222D01*
X-38264Y506352D01*
X-37975Y506489D01*
X-37975Y506488D02*
X-37867Y506527D01*
X-37760Y506570D01*
X-37655Y506616D01*
X-37551Y506667D01*
X-37449Y506720D01*
X-37349Y506777D01*
X-37251Y506838D01*
X-37156Y506902D01*
X-37062Y506969D01*
X-36971Y507040D01*
X-36882Y507113D01*
X-36796Y507190D01*
X-36713Y507269D01*
X-36632Y507351D01*
X-36554Y507436D01*
X-36480Y507524D01*
X-36408Y507614D01*
X-36339Y507707D01*
X-36274Y507801D01*
X-36212Y507898D01*
X-36154Y507998D01*
X-36098Y508099D01*
X-36047Y508201D01*
X-35999Y508306D01*
X-35954Y508412D01*
X-35913Y508520D01*
X-35876Y508629D01*
X-35843Y508739D01*
X-35814Y508851D01*
X-35788Y508963D01*
X-35766Y509076D01*
X-35749Y509190D01*
X-35735Y509304D01*
X-35725Y509419D01*
X-35719Y509534D01*
X-35717Y509649D01*
X-37975Y512809D02*
X-38264Y512946D01*
X-38556Y513076D01*
X-38852Y513199D01*
X-39150Y513314D01*
X-39451Y513423D01*
X-39754Y513524D01*
X-40060Y513618D01*
X-40367Y513705D01*
X-40677Y513784D01*
X-40989Y513856D01*
X-41302Y513920D01*
X-41617Y513977D01*
X-41933Y514027D01*
X-42250Y514069D01*
X-42568Y514103D01*
X-42886Y514130D01*
X-43206Y514149D01*
X-43525Y514160D01*
X-43845Y514164D01*
X-37975Y512810D02*
X-37867Y512771D01*
X-37760Y512728D01*
X-37655Y512682D01*
X-37551Y512631D01*
X-37449Y512578D01*
X-37349Y512521D01*
X-37251Y512460D01*
X-37156Y512396D01*
X-37062Y512329D01*
X-36971Y512258D01*
X-36882Y512185D01*
X-36796Y512108D01*
X-36713Y512029D01*
X-36632Y511947D01*
X-36554Y511862D01*
X-36480Y511774D01*
X-36408Y511684D01*
X-36339Y511591D01*
X-36274Y511497D01*
X-36212Y511400D01*
X-36154Y511300D01*
X-36098Y511199D01*
X-36047Y511096D01*
X-35999Y510992D01*
X-35954Y510886D01*
X-35913Y510778D01*
X-35876Y510669D01*
X-35843Y510559D01*
X-35814Y510447D01*
X-35788Y510335D01*
X-35766Y510222D01*
X-35749Y510108D01*
X-35735Y509994D01*
X-35725Y509879D01*
X-35719Y509764D01*
X-35717Y509649D01*
X-39329Y506036D02*
X-48361Y513261D01*
X-36620Y520139D02*
X-35717Y520139D01*
X-36620Y520139D02*
X-36620Y521042D01*
X-35717Y521042D01*
X-35717Y520139D01*
X-48361Y527017D02*
X-51973Y531532D01*
X-35717Y531532D01*
X-35717Y527017D02*
X-35717Y536048D01*
X-35717Y542648D02*
X-35717Y548067D01*
X-35719Y548185D01*
X-35725Y548303D01*
X-35734Y548421D01*
X-35748Y548538D01*
X-35765Y548655D01*
X-35786Y548772D01*
X-35811Y548887D01*
X-35840Y549002D01*
X-35873Y549116D01*
X-35909Y549228D01*
X-35949Y549339D01*
X-35992Y549449D01*
X-36039Y549558D01*
X-36089Y549665D01*
X-36144Y549770D01*
X-36201Y549873D01*
X-36262Y549974D01*
X-36326Y550074D01*
X-36393Y550171D01*
X-36463Y550266D01*
X-36537Y550358D01*
X-36613Y550449D01*
X-36693Y550536D01*
X-36775Y550621D01*
X-36860Y550703D01*
X-36947Y550783D01*
X-37038Y550859D01*
X-37130Y550933D01*
X-37225Y551003D01*
X-37322Y551070D01*
X-37422Y551134D01*
X-37523Y551195D01*
X-37626Y551252D01*
X-37731Y551307D01*
X-37838Y551357D01*
X-37947Y551404D01*
X-38057Y551447D01*
X-38168Y551487D01*
X-38280Y551523D01*
X-38394Y551556D01*
X-38509Y551585D01*
X-38624Y551610D01*
X-38741Y551631D01*
X-38858Y551648D01*
X-38975Y551662D01*
X-39093Y551671D01*
X-39211Y551677D01*
X-39329Y551679D01*
X-41136Y551679D01*
X-41254Y551677D01*
X-41372Y551671D01*
X-41490Y551662D01*
X-41607Y551648D01*
X-41724Y551631D01*
X-41841Y551610D01*
X-41956Y551585D01*
X-42071Y551556D01*
X-42185Y551523D01*
X-42297Y551487D01*
X-42408Y551447D01*
X-42518Y551404D01*
X-42627Y551357D01*
X-42734Y551307D01*
X-42839Y551252D01*
X-42942Y551195D01*
X-43043Y551134D01*
X-43143Y551070D01*
X-43240Y551003D01*
X-43335Y550933D01*
X-43427Y550859D01*
X-43518Y550783D01*
X-43605Y550703D01*
X-43690Y550621D01*
X-43772Y550536D01*
X-43852Y550449D01*
X-43928Y550358D01*
X-44002Y550266D01*
X-44072Y550171D01*
X-44139Y550074D01*
X-44203Y549974D01*
X-44264Y549873D01*
X-44321Y549770D01*
X-44376Y549665D01*
X-44426Y549558D01*
X-44473Y549449D01*
X-44516Y549339D01*
X-44556Y549228D01*
X-44592Y549116D01*
X-44625Y549002D01*
X-44654Y548887D01*
X-44679Y548772D01*
X-44700Y548655D01*
X-44717Y548538D01*
X-44731Y548421D01*
X-44740Y548303D01*
X-44746Y548185D01*
X-44748Y548067D01*
X-44748Y542648D01*
X-51973Y542648D01*
X-51973Y551679D01*
D10*
X0Y469900D02*
X0Y418650D01*
X-10160Y418650D02*
X-10160Y469900D01*
X-10810Y438150D02*
X-62160Y438150D01*
X650Y438150D02*
X75628Y438150D01*
X26000Y441342D02*
X650Y438150D01*
X26000Y441342D02*
X26000Y434958D01*
X650Y438150D01*
X26000Y439450D01*
X26000Y436850D02*
X650Y438150D01*
X26000Y440750D01*
X26000Y435550D02*
X650Y438150D01*
X-10810Y438150D02*
X-36160Y441342D01*
X-36160Y434958D01*
X-10810Y438150D01*
X-36160Y439450D01*
X-36160Y436850D02*
X-10810Y438150D01*
X-36160Y440750D01*
X-36160Y435550D02*
X-10810Y438150D01*
X-5080Y466708D02*
X-5080Y473092D01*
X-8272Y469900D02*
X-1888Y469900D01*
D11*
X26762Y457301D02*
X31278Y460913D01*
X31278Y444657D01*
X35793Y444657D02*
X26762Y444657D01*
X41768Y444657D02*
X41768Y445560D01*
X42671Y445560D01*
X42671Y444657D01*
X41768Y444657D01*
X48646Y452785D02*
X48650Y453105D01*
X48661Y453424D01*
X48680Y453744D01*
X48707Y454062D01*
X48741Y454380D01*
X48783Y454697D01*
X48833Y455013D01*
X48890Y455328D01*
X48954Y455641D01*
X49026Y455953D01*
X49105Y456263D01*
X49192Y456570D01*
X49286Y456876D01*
X49387Y457179D01*
X49496Y457480D01*
X49611Y457778D01*
X49734Y458074D01*
X49864Y458366D01*
X50001Y458655D01*
X50000Y458656D02*
X50039Y458764D01*
X50082Y458871D01*
X50128Y458976D01*
X50179Y459080D01*
X50232Y459182D01*
X50289Y459282D01*
X50350Y459380D01*
X50414Y459475D01*
X50481Y459569D01*
X50552Y459660D01*
X50625Y459749D01*
X50702Y459835D01*
X50781Y459918D01*
X50863Y459999D01*
X50948Y460077D01*
X51036Y460151D01*
X51126Y460223D01*
X51218Y460291D01*
X51313Y460357D01*
X51410Y460419D01*
X51509Y460477D01*
X51611Y460533D01*
X51713Y460584D01*
X51818Y460632D01*
X51924Y460677D01*
X52032Y460718D01*
X52141Y460755D01*
X52251Y460788D01*
X52363Y460817D01*
X52475Y460843D01*
X52588Y460865D01*
X52702Y460882D01*
X52816Y460896D01*
X52931Y460906D01*
X53046Y460912D01*
X53161Y460914D01*
X53161Y460913D02*
X53276Y460911D01*
X53391Y460905D01*
X53506Y460895D01*
X53620Y460881D01*
X53734Y460864D01*
X53847Y460842D01*
X53959Y460816D01*
X54071Y460787D01*
X54181Y460754D01*
X54290Y460717D01*
X54398Y460676D01*
X54504Y460631D01*
X54609Y460583D01*
X54711Y460532D01*
X54812Y460476D01*
X54912Y460418D01*
X55009Y460356D01*
X55103Y460291D01*
X55196Y460222D01*
X55286Y460150D01*
X55374Y460076D01*
X55459Y459998D01*
X55541Y459917D01*
X55620Y459834D01*
X55697Y459748D01*
X55770Y459659D01*
X55841Y459568D01*
X55908Y459474D01*
X55972Y459379D01*
X56033Y459281D01*
X56090Y459181D01*
X56143Y459079D01*
X56194Y458975D01*
X56240Y458870D01*
X56283Y458763D01*
X56322Y458655D01*
X56459Y458366D01*
X56589Y458074D01*
X56712Y457778D01*
X56827Y457480D01*
X56936Y457179D01*
X57037Y456876D01*
X57131Y456570D01*
X57218Y456263D01*
X57297Y455953D01*
X57369Y455641D01*
X57433Y455328D01*
X57490Y455013D01*
X57540Y454697D01*
X57582Y454380D01*
X57616Y454062D01*
X57643Y453744D01*
X57662Y453424D01*
X57673Y453105D01*
X57677Y452785D01*
X48646Y452785D02*
X48650Y452465D01*
X48661Y452146D01*
X48680Y451826D01*
X48707Y451508D01*
X48741Y451190D01*
X48783Y450873D01*
X48833Y450557D01*
X48890Y450242D01*
X48954Y449929D01*
X49026Y449617D01*
X49105Y449307D01*
X49192Y449000D01*
X49286Y448694D01*
X49387Y448391D01*
X49496Y448090D01*
X49611Y447792D01*
X49734Y447496D01*
X49864Y447204D01*
X50001Y446915D01*
X50000Y446915D02*
X50039Y446807D01*
X50082Y446700D01*
X50128Y446595D01*
X50179Y446491D01*
X50232Y446389D01*
X50289Y446289D01*
X50350Y446191D01*
X50414Y446096D01*
X50481Y446002D01*
X50552Y445911D01*
X50625Y445822D01*
X50702Y445736D01*
X50781Y445653D01*
X50863Y445572D01*
X50948Y445494D01*
X51036Y445420D01*
X51126Y445348D01*
X51219Y445279D01*
X51313Y445214D01*
X51410Y445152D01*
X51510Y445094D01*
X51611Y445038D01*
X51713Y444987D01*
X51818Y444939D01*
X51924Y444894D01*
X52032Y444853D01*
X52141Y444816D01*
X52251Y444783D01*
X52363Y444754D01*
X52475Y444728D01*
X52588Y444706D01*
X52702Y444689D01*
X52816Y444675D01*
X52931Y444665D01*
X53046Y444659D01*
X53161Y444657D01*
X56321Y446915D02*
X56458Y447204D01*
X56588Y447496D01*
X56711Y447792D01*
X56826Y448090D01*
X56935Y448391D01*
X57036Y448694D01*
X57130Y449000D01*
X57217Y449307D01*
X57296Y449617D01*
X57368Y449929D01*
X57432Y450242D01*
X57489Y450557D01*
X57539Y450873D01*
X57581Y451190D01*
X57615Y451508D01*
X57642Y451826D01*
X57661Y452146D01*
X57672Y452465D01*
X57676Y452785D01*
X56322Y446915D02*
X56283Y446807D01*
X56240Y446700D01*
X56194Y446595D01*
X56143Y446491D01*
X56090Y446389D01*
X56033Y446289D01*
X55972Y446191D01*
X55908Y446096D01*
X55841Y446002D01*
X55770Y445911D01*
X55697Y445822D01*
X55620Y445736D01*
X55541Y445653D01*
X55459Y445572D01*
X55374Y445494D01*
X55286Y445420D01*
X55196Y445348D01*
X55103Y445279D01*
X55009Y445214D01*
X54912Y445152D01*
X54812Y445094D01*
X54711Y445038D01*
X54608Y444987D01*
X54504Y444939D01*
X54398Y444894D01*
X54290Y444853D01*
X54181Y444816D01*
X54071Y444783D01*
X53959Y444754D01*
X53847Y444728D01*
X53734Y444706D01*
X53620Y444689D01*
X53506Y444675D01*
X53391Y444665D01*
X53276Y444659D01*
X53161Y444657D01*
X49549Y448269D02*
X56774Y457301D01*
X69244Y460913D02*
X69369Y460911D01*
X69494Y460905D01*
X69619Y460896D01*
X69743Y460882D01*
X69867Y460865D01*
X69991Y460844D01*
X70113Y460819D01*
X70235Y460790D01*
X70356Y460758D01*
X70476Y460722D01*
X70595Y460682D01*
X70712Y460639D01*
X70828Y460592D01*
X70943Y460541D01*
X71055Y460487D01*
X71167Y460429D01*
X71276Y460369D01*
X71383Y460304D01*
X71489Y460237D01*
X71592Y460166D01*
X71693Y460092D01*
X71792Y460015D01*
X71888Y459935D01*
X71982Y459852D01*
X72073Y459767D01*
X72162Y459678D01*
X72247Y459587D01*
X72330Y459493D01*
X72410Y459397D01*
X72487Y459298D01*
X72561Y459197D01*
X72632Y459094D01*
X72699Y458988D01*
X72764Y458881D01*
X72824Y458772D01*
X72882Y458660D01*
X72936Y458548D01*
X72987Y458433D01*
X73034Y458317D01*
X73077Y458200D01*
X73117Y458081D01*
X73153Y457961D01*
X73185Y457840D01*
X73214Y457718D01*
X73239Y457596D01*
X73260Y457472D01*
X73277Y457348D01*
X73291Y457224D01*
X73300Y457099D01*
X73306Y456974D01*
X73308Y456849D01*
X69244Y460913D02*
X69101Y460911D01*
X68959Y460905D01*
X68816Y460895D01*
X68674Y460882D01*
X68533Y460864D01*
X68391Y460843D01*
X68251Y460818D01*
X68111Y460789D01*
X67972Y460756D01*
X67834Y460719D01*
X67697Y460679D01*
X67562Y460635D01*
X67427Y460587D01*
X67294Y460535D01*
X67162Y460480D01*
X67032Y460421D01*
X66904Y460359D01*
X66777Y460293D01*
X66652Y460224D01*
X66529Y460152D01*
X66409Y460076D01*
X66290Y459997D01*
X66173Y459914D01*
X66059Y459829D01*
X65947Y459740D01*
X65838Y459649D01*
X65731Y459554D01*
X65626Y459457D01*
X65525Y459356D01*
X65426Y459253D01*
X65330Y459148D01*
X65237Y459039D01*
X65147Y458928D01*
X65060Y458815D01*
X64976Y458700D01*
X64896Y458582D01*
X64818Y458462D01*
X64744Y458340D01*
X64674Y458216D01*
X64606Y458090D01*
X64543Y457962D01*
X64482Y457833D01*
X64425Y457702D01*
X64372Y457570D01*
X64323Y457436D01*
X64277Y457301D01*
X71953Y453688D02*
X72047Y453780D01*
X72137Y453874D01*
X72225Y453971D01*
X72310Y454071D01*
X72392Y454173D01*
X72471Y454278D01*
X72546Y454385D01*
X72618Y454494D01*
X72687Y454605D01*
X72753Y454719D01*
X72815Y454834D01*
X72874Y454951D01*
X72929Y455070D01*
X72980Y455190D01*
X73028Y455312D01*
X73073Y455435D01*
X73113Y455559D01*
X73150Y455685D01*
X73183Y455812D01*
X73212Y455939D01*
X73238Y456068D01*
X73259Y456197D01*
X73277Y456327D01*
X73290Y456457D01*
X73300Y456587D01*
X73306Y456718D01*
X73308Y456849D01*
X71953Y453688D02*
X64277Y444657D01*
X73308Y444657D01*
D10*
X28100Y571500D02*
X28100Y634180D01*
X48100Y634180D02*
X48100Y571500D01*
X27450Y614680D02*
X-23900Y614680D01*
X48750Y614680D02*
X123728Y614680D01*
X27450Y614680D02*
X2100Y617872D01*
X2100Y611488D01*
X27450Y614680D01*
X2100Y615980D01*
X2100Y613380D02*
X27450Y614680D01*
X2100Y617280D01*
X2100Y612080D02*
X27450Y614680D01*
X48750Y614680D02*
X74100Y617872D01*
X74100Y611488D01*
X48750Y614680D01*
X74100Y615980D01*
X74100Y613380D02*
X48750Y614680D01*
X74100Y617280D01*
X74100Y612080D02*
X48750Y614680D01*
X38100Y574692D02*
X38100Y568308D01*
X34908Y571500D02*
X41292Y571500D01*
D11*
X83893Y633379D02*
X83891Y633504D01*
X83885Y633629D01*
X83876Y633754D01*
X83862Y633878D01*
X83845Y634002D01*
X83824Y634126D01*
X83799Y634248D01*
X83770Y634370D01*
X83738Y634491D01*
X83702Y634611D01*
X83662Y634730D01*
X83619Y634847D01*
X83572Y634963D01*
X83521Y635078D01*
X83467Y635190D01*
X83409Y635302D01*
X83349Y635411D01*
X83284Y635518D01*
X83217Y635624D01*
X83146Y635727D01*
X83072Y635828D01*
X82995Y635927D01*
X82915Y636023D01*
X82832Y636117D01*
X82747Y636208D01*
X82658Y636297D01*
X82567Y636382D01*
X82473Y636465D01*
X82377Y636545D01*
X82278Y636622D01*
X82177Y636696D01*
X82074Y636767D01*
X81968Y636834D01*
X81861Y636899D01*
X81752Y636959D01*
X81640Y637017D01*
X81528Y637071D01*
X81413Y637122D01*
X81297Y637169D01*
X81180Y637212D01*
X81061Y637252D01*
X80941Y637288D01*
X80820Y637320D01*
X80698Y637349D01*
X80576Y637374D01*
X80452Y637395D01*
X80328Y637412D01*
X80204Y637426D01*
X80079Y637435D01*
X79954Y637441D01*
X79829Y637443D01*
X79686Y637441D01*
X79544Y637435D01*
X79401Y637425D01*
X79259Y637412D01*
X79118Y637394D01*
X78976Y637373D01*
X78836Y637348D01*
X78696Y637319D01*
X78557Y637286D01*
X78419Y637249D01*
X78282Y637209D01*
X78147Y637165D01*
X78012Y637117D01*
X77879Y637065D01*
X77747Y637010D01*
X77617Y636951D01*
X77489Y636889D01*
X77362Y636823D01*
X77237Y636754D01*
X77114Y636682D01*
X76994Y636606D01*
X76875Y636527D01*
X76758Y636444D01*
X76644Y636359D01*
X76532Y636270D01*
X76423Y636179D01*
X76316Y636084D01*
X76211Y635987D01*
X76110Y635886D01*
X76011Y635783D01*
X75915Y635678D01*
X75822Y635569D01*
X75732Y635458D01*
X75645Y635345D01*
X75561Y635230D01*
X75481Y635112D01*
X75403Y634992D01*
X75329Y634870D01*
X75259Y634746D01*
X75191Y634620D01*
X75128Y634492D01*
X75067Y634363D01*
X75010Y634232D01*
X74957Y634100D01*
X74908Y633966D01*
X74862Y633831D01*
X82538Y630218D02*
X82632Y630310D01*
X82722Y630404D01*
X82810Y630501D01*
X82895Y630601D01*
X82977Y630703D01*
X83056Y630808D01*
X83131Y630915D01*
X83203Y631024D01*
X83272Y631135D01*
X83338Y631249D01*
X83400Y631364D01*
X83459Y631481D01*
X83514Y631600D01*
X83565Y631720D01*
X83613Y631842D01*
X83658Y631965D01*
X83698Y632089D01*
X83735Y632215D01*
X83768Y632342D01*
X83797Y632469D01*
X83823Y632598D01*
X83844Y632727D01*
X83862Y632857D01*
X83875Y632987D01*
X83885Y633117D01*
X83891Y633248D01*
X83893Y633379D01*
X82538Y630218D02*
X74862Y621187D01*
X83893Y621187D01*
X89868Y621187D02*
X89868Y622090D01*
X90771Y622090D01*
X90771Y621187D01*
X89868Y621187D01*
X96746Y629315D02*
X96750Y629635D01*
X96761Y629954D01*
X96780Y630274D01*
X96807Y630592D01*
X96841Y630910D01*
X96883Y631227D01*
X96933Y631543D01*
X96990Y631858D01*
X97054Y632171D01*
X97126Y632483D01*
X97205Y632793D01*
X97292Y633100D01*
X97386Y633406D01*
X97487Y633709D01*
X97596Y634010D01*
X97711Y634308D01*
X97834Y634604D01*
X97964Y634896D01*
X98101Y635185D01*
X98100Y635186D02*
X98139Y635294D01*
X98182Y635401D01*
X98228Y635506D01*
X98279Y635610D01*
X98332Y635712D01*
X98389Y635812D01*
X98450Y635910D01*
X98514Y636005D01*
X98581Y636099D01*
X98652Y636190D01*
X98725Y636279D01*
X98802Y636365D01*
X98881Y636448D01*
X98963Y636529D01*
X99048Y636607D01*
X99136Y636681D01*
X99226Y636753D01*
X99318Y636821D01*
X99413Y636887D01*
X99510Y636949D01*
X99609Y637007D01*
X99711Y637063D01*
X99813Y637114D01*
X99918Y637162D01*
X100024Y637207D01*
X100132Y637248D01*
X100241Y637285D01*
X100351Y637318D01*
X100463Y637347D01*
X100575Y637373D01*
X100688Y637395D01*
X100802Y637412D01*
X100916Y637426D01*
X101031Y637436D01*
X101146Y637442D01*
X101261Y637444D01*
X101261Y637443D02*
X101376Y637441D01*
X101491Y637435D01*
X101606Y637425D01*
X101720Y637411D01*
X101834Y637394D01*
X101947Y637372D01*
X102059Y637346D01*
X102171Y637317D01*
X102281Y637284D01*
X102390Y637247D01*
X102498Y637206D01*
X102604Y637161D01*
X102709Y637113D01*
X102811Y637062D01*
X102912Y637006D01*
X103012Y636948D01*
X103109Y636886D01*
X103203Y636821D01*
X103296Y636752D01*
X103386Y636680D01*
X103474Y636606D01*
X103559Y636528D01*
X103641Y636447D01*
X103720Y636364D01*
X103797Y636278D01*
X103870Y636189D01*
X103941Y636098D01*
X104008Y636004D01*
X104072Y635909D01*
X104133Y635811D01*
X104190Y635711D01*
X104243Y635609D01*
X104294Y635505D01*
X104340Y635400D01*
X104383Y635293D01*
X104422Y635185D01*
X104559Y634896D01*
X104689Y634604D01*
X104812Y634308D01*
X104927Y634010D01*
X105036Y633709D01*
X105137Y633406D01*
X105231Y633100D01*
X105318Y632793D01*
X105397Y632483D01*
X105469Y632171D01*
X105533Y631858D01*
X105590Y631543D01*
X105640Y631227D01*
X105682Y630910D01*
X105716Y630592D01*
X105743Y630274D01*
X105762Y629954D01*
X105773Y629635D01*
X105777Y629315D01*
X96746Y629315D02*
X96750Y628995D01*
X96761Y628676D01*
X96780Y628356D01*
X96807Y628038D01*
X96841Y627720D01*
X96883Y627403D01*
X96933Y627087D01*
X96990Y626772D01*
X97054Y626459D01*
X97126Y626147D01*
X97205Y625837D01*
X97292Y625530D01*
X97386Y625224D01*
X97487Y624921D01*
X97596Y624620D01*
X97711Y624322D01*
X97834Y624026D01*
X97964Y623734D01*
X98101Y623445D01*
X98100Y623445D02*
X98139Y623337D01*
X98182Y623230D01*
X98228Y623125D01*
X98279Y623021D01*
X98332Y622919D01*
X98389Y622819D01*
X98450Y622721D01*
X98514Y622626D01*
X98581Y622532D01*
X98652Y622441D01*
X98725Y622352D01*
X98802Y622266D01*
X98881Y622183D01*
X98963Y622102D01*
X99048Y622024D01*
X99136Y621950D01*
X99226Y621878D01*
X99319Y621809D01*
X99413Y621744D01*
X99510Y621682D01*
X99610Y621624D01*
X99711Y621568D01*
X99813Y621517D01*
X99918Y621469D01*
X100024Y621424D01*
X100132Y621383D01*
X100241Y621346D01*
X100351Y621313D01*
X100463Y621284D01*
X100575Y621258D01*
X100688Y621236D01*
X100802Y621219D01*
X100916Y621205D01*
X101031Y621195D01*
X101146Y621189D01*
X101261Y621187D01*
X104421Y623445D02*
X104558Y623734D01*
X104688Y624026D01*
X104811Y624322D01*
X104926Y624620D01*
X105035Y624921D01*
X105136Y625224D01*
X105230Y625530D01*
X105317Y625837D01*
X105396Y626147D01*
X105468Y626459D01*
X105532Y626772D01*
X105589Y627087D01*
X105639Y627403D01*
X105681Y627720D01*
X105715Y628038D01*
X105742Y628356D01*
X105761Y628676D01*
X105772Y628995D01*
X105776Y629315D01*
X104422Y623445D02*
X104383Y623337D01*
X104340Y623230D01*
X104294Y623125D01*
X104243Y623021D01*
X104190Y622919D01*
X104133Y622819D01*
X104072Y622721D01*
X104008Y622626D01*
X103941Y622532D01*
X103870Y622441D01*
X103797Y622352D01*
X103720Y622266D01*
X103641Y622183D01*
X103559Y622102D01*
X103474Y622024D01*
X103386Y621950D01*
X103296Y621878D01*
X103203Y621809D01*
X103109Y621744D01*
X103012Y621682D01*
X102912Y621624D01*
X102811Y621568D01*
X102708Y621517D01*
X102604Y621469D01*
X102498Y621424D01*
X102390Y621383D01*
X102281Y621346D01*
X102171Y621313D01*
X102059Y621284D01*
X101947Y621258D01*
X101834Y621236D01*
X101720Y621219D01*
X101606Y621205D01*
X101491Y621195D01*
X101376Y621189D01*
X101261Y621187D01*
X97649Y624799D02*
X104874Y633831D01*
X112377Y629315D02*
X112381Y629635D01*
X112392Y629954D01*
X112411Y630274D01*
X112438Y630592D01*
X112472Y630910D01*
X112514Y631227D01*
X112564Y631543D01*
X112621Y631858D01*
X112685Y632171D01*
X112757Y632483D01*
X112836Y632793D01*
X112923Y633100D01*
X113017Y633406D01*
X113118Y633709D01*
X113227Y634010D01*
X113342Y634308D01*
X113465Y634604D01*
X113595Y634896D01*
X113732Y635185D01*
X113731Y635186D02*
X113770Y635294D01*
X113813Y635401D01*
X113859Y635506D01*
X113910Y635610D01*
X113963Y635712D01*
X114020Y635812D01*
X114081Y635910D01*
X114145Y636005D01*
X114212Y636099D01*
X114283Y636190D01*
X114356Y636279D01*
X114433Y636365D01*
X114512Y636448D01*
X114594Y636529D01*
X114679Y636607D01*
X114767Y636681D01*
X114857Y636753D01*
X114949Y636821D01*
X115044Y636887D01*
X115141Y636949D01*
X115240Y637007D01*
X115342Y637063D01*
X115444Y637114D01*
X115549Y637162D01*
X115655Y637207D01*
X115763Y637248D01*
X115872Y637285D01*
X115982Y637318D01*
X116094Y637347D01*
X116206Y637373D01*
X116319Y637395D01*
X116433Y637412D01*
X116547Y637426D01*
X116662Y637436D01*
X116777Y637442D01*
X116892Y637444D01*
X116892Y637443D02*
X117007Y637441D01*
X117122Y637435D01*
X117237Y637425D01*
X117351Y637411D01*
X117465Y637394D01*
X117578Y637372D01*
X117690Y637346D01*
X117802Y637317D01*
X117912Y637284D01*
X118021Y637247D01*
X118129Y637206D01*
X118235Y637161D01*
X118340Y637113D01*
X118442Y637062D01*
X118543Y637006D01*
X118643Y636948D01*
X118740Y636886D01*
X118834Y636821D01*
X118927Y636752D01*
X119017Y636680D01*
X119105Y636606D01*
X119190Y636528D01*
X119272Y636447D01*
X119351Y636364D01*
X119428Y636278D01*
X119501Y636189D01*
X119572Y636098D01*
X119639Y636004D01*
X119703Y635909D01*
X119764Y635811D01*
X119821Y635711D01*
X119874Y635609D01*
X119925Y635505D01*
X119971Y635400D01*
X120014Y635293D01*
X120053Y635185D01*
X120190Y634896D01*
X120320Y634604D01*
X120443Y634308D01*
X120558Y634010D01*
X120667Y633709D01*
X120768Y633406D01*
X120862Y633100D01*
X120949Y632793D01*
X121028Y632483D01*
X121100Y632171D01*
X121164Y631858D01*
X121221Y631543D01*
X121271Y631227D01*
X121313Y630910D01*
X121347Y630592D01*
X121374Y630274D01*
X121393Y629954D01*
X121404Y629635D01*
X121408Y629315D01*
X112377Y629315D02*
X112381Y628995D01*
X112392Y628676D01*
X112411Y628356D01*
X112438Y628038D01*
X112472Y627720D01*
X112514Y627403D01*
X112564Y627087D01*
X112621Y626772D01*
X112685Y626459D01*
X112757Y626147D01*
X112836Y625837D01*
X112923Y625530D01*
X113017Y625224D01*
X113118Y624921D01*
X113227Y624620D01*
X113342Y624322D01*
X113465Y624026D01*
X113595Y623734D01*
X113732Y623445D01*
X113731Y623445D02*
X113770Y623337D01*
X113813Y623230D01*
X113859Y623125D01*
X113910Y623021D01*
X113963Y622919D01*
X114020Y622819D01*
X114081Y622721D01*
X114145Y622626D01*
X114212Y622532D01*
X114283Y622441D01*
X114356Y622352D01*
X114433Y622266D01*
X114512Y622183D01*
X114594Y622102D01*
X114679Y622024D01*
X114767Y621950D01*
X114857Y621878D01*
X114950Y621809D01*
X115044Y621744D01*
X115141Y621682D01*
X115241Y621624D01*
X115342Y621568D01*
X115444Y621517D01*
X115549Y621469D01*
X115655Y621424D01*
X115763Y621383D01*
X115872Y621346D01*
X115982Y621313D01*
X116094Y621284D01*
X116206Y621258D01*
X116319Y621236D01*
X116433Y621219D01*
X116547Y621205D01*
X116662Y621195D01*
X116777Y621189D01*
X116892Y621187D01*
X120053Y623445D02*
X120190Y623734D01*
X120320Y624026D01*
X120443Y624322D01*
X120558Y624620D01*
X120667Y624921D01*
X120768Y625224D01*
X120862Y625530D01*
X120949Y625837D01*
X121028Y626147D01*
X121100Y626459D01*
X121164Y626772D01*
X121221Y627087D01*
X121271Y627403D01*
X121313Y627720D01*
X121347Y628038D01*
X121374Y628356D01*
X121393Y628676D01*
X121404Y628995D01*
X121408Y629315D01*
X120053Y623445D02*
X120014Y623337D01*
X119971Y623230D01*
X119925Y623125D01*
X119874Y623021D01*
X119821Y622919D01*
X119764Y622819D01*
X119703Y622721D01*
X119639Y622626D01*
X119572Y622532D01*
X119501Y622441D01*
X119428Y622352D01*
X119351Y622266D01*
X119272Y622183D01*
X119190Y622102D01*
X119105Y622024D01*
X119017Y621950D01*
X118927Y621878D01*
X118834Y621809D01*
X118740Y621744D01*
X118643Y621682D01*
X118543Y621624D01*
X118442Y621568D01*
X118339Y621517D01*
X118235Y621469D01*
X118129Y621424D01*
X118021Y621383D01*
X117912Y621346D01*
X117802Y621313D01*
X117690Y621284D01*
X117578Y621258D01*
X117465Y621236D01*
X117351Y621219D01*
X117237Y621205D01*
X117122Y621195D01*
X117007Y621189D01*
X116892Y621187D01*
X113280Y624799D02*
X120505Y633831D01*
D10*
X85170Y606240D02*
X85170Y571500D01*
X95170Y571500D02*
X95170Y606240D01*
X84520Y586740D02*
X33170Y586740D01*
X95820Y586740D02*
X170798Y586740D01*
X84520Y586740D02*
X59170Y589932D01*
X59170Y583548D01*
X84520Y586740D01*
X59170Y588040D01*
X59170Y585440D02*
X84520Y586740D01*
X59170Y589340D01*
X59170Y584140D02*
X84520Y586740D01*
X95820Y586740D02*
X121170Y589932D01*
X121170Y583548D01*
X95820Y586740D01*
X121170Y588040D01*
X121170Y585440D02*
X95820Y586740D01*
X121170Y589340D01*
X121170Y584140D02*
X95820Y586740D01*
X90170Y574692D02*
X90170Y568308D01*
X86978Y571500D02*
X93362Y571500D01*
D11*
X121932Y605891D02*
X126448Y609503D01*
X126448Y593247D01*
X130963Y593247D02*
X121932Y593247D01*
X136938Y593247D02*
X136938Y594150D01*
X137841Y594150D01*
X137841Y593247D01*
X136938Y593247D01*
X143816Y601375D02*
X143820Y601695D01*
X143831Y602014D01*
X143850Y602334D01*
X143877Y602652D01*
X143911Y602970D01*
X143953Y603287D01*
X144003Y603603D01*
X144060Y603918D01*
X144124Y604231D01*
X144196Y604543D01*
X144275Y604853D01*
X144362Y605160D01*
X144456Y605466D01*
X144557Y605769D01*
X144666Y606070D01*
X144781Y606368D01*
X144904Y606664D01*
X145034Y606956D01*
X145171Y607245D01*
X145170Y607246D02*
X145209Y607354D01*
X145252Y607461D01*
X145298Y607566D01*
X145349Y607670D01*
X145402Y607772D01*
X145459Y607872D01*
X145520Y607970D01*
X145584Y608065D01*
X145651Y608159D01*
X145722Y608250D01*
X145795Y608339D01*
X145872Y608425D01*
X145951Y608508D01*
X146033Y608589D01*
X146118Y608667D01*
X146206Y608741D01*
X146296Y608813D01*
X146388Y608881D01*
X146483Y608947D01*
X146580Y609009D01*
X146679Y609067D01*
X146781Y609123D01*
X146883Y609174D01*
X146988Y609222D01*
X147094Y609267D01*
X147202Y609308D01*
X147311Y609345D01*
X147421Y609378D01*
X147533Y609407D01*
X147645Y609433D01*
X147758Y609455D01*
X147872Y609472D01*
X147986Y609486D01*
X148101Y609496D01*
X148216Y609502D01*
X148331Y609504D01*
X148331Y609503D02*
X148446Y609501D01*
X148561Y609495D01*
X148676Y609485D01*
X148790Y609471D01*
X148904Y609454D01*
X149017Y609432D01*
X149129Y609406D01*
X149241Y609377D01*
X149351Y609344D01*
X149460Y609307D01*
X149568Y609266D01*
X149674Y609221D01*
X149779Y609173D01*
X149881Y609122D01*
X149982Y609066D01*
X150082Y609008D01*
X150179Y608946D01*
X150273Y608881D01*
X150366Y608812D01*
X150456Y608740D01*
X150544Y608666D01*
X150629Y608588D01*
X150711Y608507D01*
X150790Y608424D01*
X150867Y608338D01*
X150940Y608249D01*
X151011Y608158D01*
X151078Y608064D01*
X151142Y607969D01*
X151203Y607871D01*
X151260Y607771D01*
X151313Y607669D01*
X151364Y607565D01*
X151410Y607460D01*
X151453Y607353D01*
X151492Y607245D01*
X151629Y606956D01*
X151759Y606664D01*
X151882Y606368D01*
X151997Y606070D01*
X152106Y605769D01*
X152207Y605466D01*
X152301Y605160D01*
X152388Y604853D01*
X152467Y604543D01*
X152539Y604231D01*
X152603Y603918D01*
X152660Y603603D01*
X152710Y603287D01*
X152752Y602970D01*
X152786Y602652D01*
X152813Y602334D01*
X152832Y602014D01*
X152843Y601695D01*
X152847Y601375D01*
X143816Y601375D02*
X143820Y601055D01*
X143831Y600736D01*
X143850Y600416D01*
X143877Y600098D01*
X143911Y599780D01*
X143953Y599463D01*
X144003Y599147D01*
X144060Y598832D01*
X144124Y598519D01*
X144196Y598207D01*
X144275Y597897D01*
X144362Y597590D01*
X144456Y597284D01*
X144557Y596981D01*
X144666Y596680D01*
X144781Y596382D01*
X144904Y596086D01*
X145034Y595794D01*
X145171Y595505D01*
X145170Y595505D02*
X145209Y595397D01*
X145252Y595290D01*
X145298Y595185D01*
X145349Y595081D01*
X145402Y594979D01*
X145459Y594879D01*
X145520Y594781D01*
X145584Y594686D01*
X145651Y594592D01*
X145722Y594501D01*
X145795Y594412D01*
X145872Y594326D01*
X145951Y594243D01*
X146033Y594162D01*
X146118Y594084D01*
X146206Y594010D01*
X146296Y593938D01*
X146389Y593869D01*
X146483Y593804D01*
X146580Y593742D01*
X146680Y593684D01*
X146781Y593628D01*
X146883Y593577D01*
X146988Y593529D01*
X147094Y593484D01*
X147202Y593443D01*
X147311Y593406D01*
X147421Y593373D01*
X147533Y593344D01*
X147645Y593318D01*
X147758Y593296D01*
X147872Y593279D01*
X147986Y593265D01*
X148101Y593255D01*
X148216Y593249D01*
X148331Y593247D01*
X151491Y595505D02*
X151628Y595794D01*
X151758Y596086D01*
X151881Y596382D01*
X151996Y596680D01*
X152105Y596981D01*
X152206Y597284D01*
X152300Y597590D01*
X152387Y597897D01*
X152466Y598207D01*
X152538Y598519D01*
X152602Y598832D01*
X152659Y599147D01*
X152709Y599463D01*
X152751Y599780D01*
X152785Y600098D01*
X152812Y600416D01*
X152831Y600736D01*
X152842Y601055D01*
X152846Y601375D01*
X151492Y595505D02*
X151453Y595397D01*
X151410Y595290D01*
X151364Y595185D01*
X151313Y595081D01*
X151260Y594979D01*
X151203Y594879D01*
X151142Y594781D01*
X151078Y594686D01*
X151011Y594592D01*
X150940Y594501D01*
X150867Y594412D01*
X150790Y594326D01*
X150711Y594243D01*
X150629Y594162D01*
X150544Y594084D01*
X150456Y594010D01*
X150366Y593938D01*
X150273Y593869D01*
X150179Y593804D01*
X150082Y593742D01*
X149982Y593684D01*
X149881Y593628D01*
X149778Y593577D01*
X149674Y593529D01*
X149568Y593484D01*
X149460Y593443D01*
X149351Y593406D01*
X149241Y593373D01*
X149129Y593344D01*
X149017Y593318D01*
X148904Y593296D01*
X148790Y593279D01*
X148676Y593265D01*
X148561Y593255D01*
X148446Y593249D01*
X148331Y593247D01*
X144719Y596859D02*
X151944Y605891D01*
X159447Y601375D02*
X159451Y601695D01*
X159462Y602014D01*
X159481Y602334D01*
X159508Y602652D01*
X159542Y602970D01*
X159584Y603287D01*
X159634Y603603D01*
X159691Y603918D01*
X159755Y604231D01*
X159827Y604543D01*
X159906Y604853D01*
X159993Y605160D01*
X160087Y605466D01*
X160188Y605769D01*
X160297Y606070D01*
X160412Y606368D01*
X160535Y606664D01*
X160665Y606956D01*
X160802Y607245D01*
X160801Y607246D02*
X160840Y607354D01*
X160883Y607461D01*
X160929Y607566D01*
X160980Y607670D01*
X161033Y607772D01*
X161090Y607872D01*
X161151Y607970D01*
X161215Y608065D01*
X161282Y608159D01*
X161353Y608250D01*
X161426Y608339D01*
X161503Y608425D01*
X161582Y608508D01*
X161664Y608589D01*
X161749Y608667D01*
X161837Y608741D01*
X161927Y608813D01*
X162019Y608881D01*
X162114Y608947D01*
X162211Y609009D01*
X162310Y609067D01*
X162412Y609123D01*
X162514Y609174D01*
X162619Y609222D01*
X162725Y609267D01*
X162833Y609308D01*
X162942Y609345D01*
X163052Y609378D01*
X163164Y609407D01*
X163276Y609433D01*
X163389Y609455D01*
X163503Y609472D01*
X163617Y609486D01*
X163732Y609496D01*
X163847Y609502D01*
X163962Y609504D01*
X163962Y609503D02*
X164077Y609501D01*
X164192Y609495D01*
X164307Y609485D01*
X164421Y609471D01*
X164535Y609454D01*
X164648Y609432D01*
X164760Y609406D01*
X164872Y609377D01*
X164982Y609344D01*
X165091Y609307D01*
X165199Y609266D01*
X165305Y609221D01*
X165410Y609173D01*
X165512Y609122D01*
X165613Y609066D01*
X165713Y609008D01*
X165810Y608946D01*
X165904Y608881D01*
X165997Y608812D01*
X166087Y608740D01*
X166175Y608666D01*
X166260Y608588D01*
X166342Y608507D01*
X166421Y608424D01*
X166498Y608338D01*
X166571Y608249D01*
X166642Y608158D01*
X166709Y608064D01*
X166773Y607969D01*
X166834Y607871D01*
X166891Y607771D01*
X166944Y607669D01*
X166995Y607565D01*
X167041Y607460D01*
X167084Y607353D01*
X167123Y607245D01*
X167260Y606956D01*
X167390Y606664D01*
X167513Y606368D01*
X167628Y606070D01*
X167737Y605769D01*
X167838Y605466D01*
X167932Y605160D01*
X168019Y604853D01*
X168098Y604543D01*
X168170Y604231D01*
X168234Y603918D01*
X168291Y603603D01*
X168341Y603287D01*
X168383Y602970D01*
X168417Y602652D01*
X168444Y602334D01*
X168463Y602014D01*
X168474Y601695D01*
X168478Y601375D01*
X159447Y601375D02*
X159451Y601055D01*
X159462Y600736D01*
X159481Y600416D01*
X159508Y600098D01*
X159542Y599780D01*
X159584Y599463D01*
X159634Y599147D01*
X159691Y598832D01*
X159755Y598519D01*
X159827Y598207D01*
X159906Y597897D01*
X159993Y597590D01*
X160087Y597284D01*
X160188Y596981D01*
X160297Y596680D01*
X160412Y596382D01*
X160535Y596086D01*
X160665Y595794D01*
X160802Y595505D01*
X160801Y595505D02*
X160840Y595397D01*
X160883Y595290D01*
X160929Y595185D01*
X160980Y595081D01*
X161033Y594979D01*
X161090Y594879D01*
X161151Y594781D01*
X161215Y594686D01*
X161282Y594592D01*
X161353Y594501D01*
X161426Y594412D01*
X161503Y594326D01*
X161582Y594243D01*
X161664Y594162D01*
X161749Y594084D01*
X161837Y594010D01*
X161927Y593938D01*
X162020Y593869D01*
X162114Y593804D01*
X162211Y593742D01*
X162311Y593684D01*
X162412Y593628D01*
X162514Y593577D01*
X162619Y593529D01*
X162725Y593484D01*
X162833Y593443D01*
X162942Y593406D01*
X163052Y593373D01*
X163164Y593344D01*
X163276Y593318D01*
X163389Y593296D01*
X163503Y593279D01*
X163617Y593265D01*
X163732Y593255D01*
X163847Y593249D01*
X163962Y593247D01*
X167123Y595505D02*
X167260Y595794D01*
X167390Y596086D01*
X167513Y596382D01*
X167628Y596680D01*
X167737Y596981D01*
X167838Y597284D01*
X167932Y597590D01*
X168019Y597897D01*
X168098Y598207D01*
X168170Y598519D01*
X168234Y598832D01*
X168291Y599147D01*
X168341Y599463D01*
X168383Y599780D01*
X168417Y600098D01*
X168444Y600416D01*
X168463Y600736D01*
X168474Y601055D01*
X168478Y601375D01*
X167123Y595505D02*
X167084Y595397D01*
X167041Y595290D01*
X166995Y595185D01*
X166944Y595081D01*
X166891Y594979D01*
X166834Y594879D01*
X166773Y594781D01*
X166709Y594686D01*
X166642Y594592D01*
X166571Y594501D01*
X166498Y594412D01*
X166421Y594326D01*
X166342Y594243D01*
X166260Y594162D01*
X166175Y594084D01*
X166087Y594010D01*
X165997Y593938D01*
X165904Y593869D01*
X165810Y593804D01*
X165713Y593742D01*
X165613Y593684D01*
X165512Y593628D01*
X165409Y593577D01*
X165305Y593529D01*
X165199Y593484D01*
X165091Y593443D01*
X164982Y593406D01*
X164872Y593373D01*
X164760Y593344D01*
X164648Y593318D01*
X164535Y593296D01*
X164421Y593279D01*
X164307Y593265D01*
X164192Y593255D01*
X164077Y593249D01*
X163962Y593247D01*
X160350Y596859D02*
X167575Y605891D01*
D12*
X82550Y482600D03*
X82550Y497840D03*
X82550Y542290D03*
X82550Y557530D03*
D13*
X100330Y558800D02*
X115570Y558800D01*
X115570Y533400D02*
X100330Y533400D01*
X100330Y508000D02*
X115570Y508000D01*
X115570Y482600D02*
X100330Y482600D01*
D14*
X64770Y523200D03*
X64770Y528200D03*
X64770Y533200D03*
X64770Y538200D03*
X64770Y518200D03*
X64770Y513200D03*
X64770Y508200D03*
X64770Y503200D03*
D15*
X63910Y563900D02*
X52830Y563900D01*
X22110Y563900D02*
X11030Y563900D01*
X11030Y477500D02*
X22110Y477500D01*
X52830Y477500D02*
X63910Y477500D01*
D16*
X64770Y552700D03*
X64770Y488700D03*
X64770Y544700D03*
X64770Y496700D03*
D11*
X82550Y497840D02*
X82550Y502597D01*
X79145Y506002D01*
X79145Y526648D01*
X73267Y532526D01*
X66119Y532526D01*
X64770Y533200D01*
D17*
X77470Y566420D03*
D11*
X80010Y566420D01*
X82550Y563880D01*
X82550Y557530D01*
X61324Y503888D02*
X62012Y503200D01*
X61324Y503888D02*
X64082Y503888D01*
X64770Y503200D01*
X62012Y503200D01*
D17*
X49530Y508000D03*
D11*
X49530Y505460D02*
X51790Y503200D01*
X49530Y505460D02*
X49530Y508000D01*
X51790Y503200D02*
X64770Y503200D01*
D17*
X85304Y510565D03*
D18*
X82550Y533400D02*
X82550Y542290D01*
X82550Y533400D02*
X83820Y532130D01*
D17*
X83820Y532130D03*
X45720Y554990D03*
D19*
X64770Y488700D02*
X72640Y488700D01*
X78740Y482600D01*
X82550Y482600D01*
D18*
X62230Y555240D02*
X45970Y555240D01*
X45720Y554990D01*
X62230Y555240D02*
X64770Y552700D01*
D19*
X85090Y480060D02*
X105410Y480060D01*
X85090Y480060D02*
X82550Y482600D01*
X105410Y480060D02*
X107950Y482600D01*
D18*
X85304Y530646D02*
X83820Y532130D01*
X85304Y530646D02*
X85304Y510565D01*
X43180Y504190D02*
X43180Y534670D01*
X51940Y543430D01*
X63500Y497970D02*
X64770Y496700D01*
X63500Y497970D02*
X49400Y497970D01*
X43180Y504190D01*
D20*
X99120Y549970D02*
X107950Y558800D01*
X99120Y549970D02*
X77190Y549970D01*
X71896Y544676D01*
D21*
X64794Y544676D01*
X64770Y544700D01*
D18*
X63500Y543430D01*
X51940Y543430D01*
D11*
X51823Y518230D02*
X64332Y518230D01*
X64770Y518200D01*
D17*
X51823Y518230D03*
D11*
X51823Y524263D01*
X55880Y528320D01*
X64650Y528320D01*
X64770Y528200D01*
X66119Y512869D02*
X71480Y512869D01*
X75054Y516443D01*
X75054Y520017D01*
X71480Y523591D01*
X66119Y523591D01*
X64770Y513200D02*
X66119Y512869D01*
X64770Y523200D02*
X66119Y523591D01*
X74301Y494999D02*
X79662Y489638D01*
X87091Y489638D01*
X104452Y506999D01*
X107950Y508000D01*
X65458Y512512D02*
X64770Y513200D01*
X65458Y512512D02*
X72435Y512512D01*
X74301Y510646D01*
X74301Y494999D01*
M02*
