G04 EAGLE Gerber RS-274X export*
G75*
%MOMM*%
%FSLAX34Y34*%
%LPD*%
%IN*%
%IPPOS*%
%AMOC8*
5,1,8,0,0,1.08239X$1,22.5*%
G01*
%ADD10C,0.254000*%


D10*
X0Y469900D02*
X123700Y469900D01*
X123700Y571400D01*
X0Y571400D01*
X0Y469900D01*
X10570Y477500D02*
X10581Y477239D01*
X10616Y476979D01*
X10672Y476724D01*
X10751Y476474D01*
X10851Y476232D01*
X10972Y476000D01*
X11113Y475779D01*
X11272Y475572D01*
X11449Y475379D01*
X11642Y475202D01*
X11849Y475043D01*
X12070Y474902D01*
X12302Y474781D01*
X12544Y474681D01*
X12794Y474602D01*
X13049Y474546D01*
X13309Y474511D01*
X13570Y474500D01*
X19570Y474500D01*
X19831Y474511D01*
X20091Y474546D01*
X20346Y474602D01*
X20596Y474681D01*
X20838Y474781D01*
X21070Y474902D01*
X21291Y475043D01*
X21498Y475202D01*
X21691Y475379D01*
X21868Y475572D01*
X22027Y475779D01*
X22168Y476000D01*
X22289Y476232D01*
X22389Y476474D01*
X22468Y476724D01*
X22524Y476979D01*
X22559Y477239D01*
X22570Y477500D01*
X22559Y477761D01*
X22524Y478021D01*
X22468Y478276D01*
X22389Y478526D01*
X22289Y478768D01*
X22168Y479000D01*
X22027Y479221D01*
X21868Y479428D01*
X21691Y479621D01*
X21498Y479798D01*
X21291Y479957D01*
X21070Y480098D01*
X20838Y480219D01*
X20596Y480319D01*
X20346Y480398D01*
X20091Y480454D01*
X19831Y480489D01*
X19570Y480500D01*
X13570Y480500D01*
X13309Y480489D01*
X13049Y480454D01*
X12794Y480398D01*
X12544Y480319D01*
X12302Y480219D01*
X12070Y480098D01*
X11849Y479957D01*
X11642Y479798D01*
X11449Y479621D01*
X11272Y479428D01*
X11113Y479221D01*
X10972Y479000D01*
X10851Y478768D01*
X10751Y478526D01*
X10672Y478276D01*
X10616Y478021D01*
X10581Y477761D01*
X10570Y477500D01*
X10570Y563900D02*
X10581Y563639D01*
X10616Y563379D01*
X10672Y563124D01*
X10751Y562874D01*
X10851Y562632D01*
X10972Y562400D01*
X11113Y562179D01*
X11272Y561972D01*
X11449Y561779D01*
X11642Y561602D01*
X11849Y561443D01*
X12070Y561302D01*
X12302Y561181D01*
X12544Y561081D01*
X12794Y561002D01*
X13049Y560946D01*
X13309Y560911D01*
X13570Y560900D01*
X19570Y560900D01*
X19831Y560911D01*
X20091Y560946D01*
X20346Y561002D01*
X20596Y561081D01*
X20838Y561181D01*
X21070Y561302D01*
X21291Y561443D01*
X21498Y561602D01*
X21691Y561779D01*
X21868Y561972D01*
X22027Y562179D01*
X22168Y562400D01*
X22289Y562632D01*
X22389Y562874D01*
X22468Y563124D01*
X22524Y563379D01*
X22559Y563639D01*
X22570Y563900D01*
X22559Y564161D01*
X22524Y564421D01*
X22468Y564676D01*
X22389Y564926D01*
X22289Y565168D01*
X22168Y565400D01*
X22027Y565621D01*
X21868Y565828D01*
X21691Y566021D01*
X21498Y566198D01*
X21291Y566357D01*
X21070Y566498D01*
X20838Y566619D01*
X20596Y566719D01*
X20346Y566798D01*
X20091Y566854D01*
X19831Y566889D01*
X19570Y566900D01*
X13570Y566900D01*
X13309Y566889D01*
X13049Y566854D01*
X12794Y566798D01*
X12544Y566719D01*
X12302Y566619D01*
X12070Y566498D01*
X11849Y566357D01*
X11642Y566198D01*
X11449Y566021D01*
X11272Y565828D01*
X11113Y565621D01*
X10972Y565400D01*
X10851Y565168D01*
X10751Y564926D01*
X10672Y564676D01*
X10616Y564421D01*
X10581Y564161D01*
X10570Y563900D01*
X49870Y477500D02*
X49881Y477239D01*
X49916Y476979D01*
X49972Y476724D01*
X50051Y476474D01*
X50151Y476232D01*
X50272Y476000D01*
X50413Y475779D01*
X50572Y475572D01*
X50749Y475379D01*
X50942Y475202D01*
X51149Y475043D01*
X51370Y474902D01*
X51602Y474781D01*
X51844Y474681D01*
X52094Y474602D01*
X52349Y474546D01*
X52609Y474511D01*
X52870Y474500D01*
X63870Y474500D01*
X64131Y474511D01*
X64391Y474546D01*
X64646Y474602D01*
X64896Y474681D01*
X65138Y474781D01*
X65370Y474902D01*
X65591Y475043D01*
X65798Y475202D01*
X65991Y475379D01*
X66168Y475572D01*
X66327Y475779D01*
X66468Y476000D01*
X66589Y476232D01*
X66689Y476474D01*
X66768Y476724D01*
X66824Y476979D01*
X66859Y477239D01*
X66870Y477500D01*
X66859Y477761D01*
X66824Y478021D01*
X66768Y478276D01*
X66689Y478526D01*
X66589Y478768D01*
X66468Y479000D01*
X66327Y479221D01*
X66168Y479428D01*
X65991Y479621D01*
X65798Y479798D01*
X65591Y479957D01*
X65370Y480098D01*
X65138Y480219D01*
X64896Y480319D01*
X64646Y480398D01*
X64391Y480454D01*
X64131Y480489D01*
X63870Y480500D01*
X52870Y480500D01*
X52609Y480489D01*
X52349Y480454D01*
X52094Y480398D01*
X51844Y480319D01*
X51602Y480219D01*
X51370Y480098D01*
X51149Y479957D01*
X50942Y479798D01*
X50749Y479621D01*
X50572Y479428D01*
X50413Y479221D01*
X50272Y479000D01*
X50151Y478768D01*
X50051Y478526D01*
X49972Y478276D01*
X49916Y478021D01*
X49881Y477761D01*
X49870Y477500D01*
X49870Y563900D02*
X49881Y563639D01*
X49916Y563379D01*
X49972Y563124D01*
X50051Y562874D01*
X50151Y562632D01*
X50272Y562400D01*
X50413Y562179D01*
X50572Y561972D01*
X50749Y561779D01*
X50942Y561602D01*
X51149Y561443D01*
X51370Y561302D01*
X51602Y561181D01*
X51844Y561081D01*
X52094Y561002D01*
X52349Y560946D01*
X52609Y560911D01*
X52870Y560900D01*
X63870Y560900D01*
X64131Y560911D01*
X64391Y560946D01*
X64646Y561002D01*
X64896Y561081D01*
X65138Y561181D01*
X65370Y561302D01*
X65591Y561443D01*
X65798Y561602D01*
X65991Y561779D01*
X66168Y561972D01*
X66327Y562179D01*
X66468Y562400D01*
X66589Y562632D01*
X66689Y562874D01*
X66768Y563124D01*
X66824Y563379D01*
X66859Y563639D01*
X66870Y563900D01*
X66859Y564161D01*
X66824Y564421D01*
X66768Y564676D01*
X66689Y564926D01*
X66589Y565168D01*
X66468Y565400D01*
X66327Y565621D01*
X66168Y565828D01*
X65991Y566021D01*
X65798Y566198D01*
X65591Y566357D01*
X65370Y566498D01*
X65138Y566619D01*
X64896Y566719D01*
X64646Y566798D01*
X64391Y566854D01*
X64131Y566889D01*
X63870Y566900D01*
X52870Y566900D01*
X52609Y566889D01*
X52349Y566854D01*
X52094Y566798D01*
X51844Y566719D01*
X51602Y566619D01*
X51370Y566498D01*
X51149Y566357D01*
X50942Y566198D01*
X50749Y566021D01*
X50572Y565828D01*
X50413Y565621D01*
X50272Y565400D01*
X50151Y565168D01*
X50051Y564926D01*
X49972Y564676D01*
X49916Y564421D01*
X49881Y564161D01*
X49870Y563900D01*
X48100Y571063D02*
X48024Y570194D01*
X47872Y569334D01*
X47646Y568490D01*
X47348Y567670D01*
X46979Y566878D01*
X46542Y566122D01*
X46041Y565407D01*
X45480Y564738D01*
X44862Y564120D01*
X44193Y563559D01*
X43478Y563058D01*
X42722Y562621D01*
X41930Y562252D01*
X41110Y561954D01*
X40266Y561728D01*
X39407Y561576D01*
X38537Y561500D01*
X37663Y561500D01*
X36794Y561576D01*
X35934Y561728D01*
X35090Y561954D01*
X34270Y562252D01*
X33478Y562621D01*
X32722Y563058D01*
X32007Y563559D01*
X31338Y564120D01*
X30720Y564738D01*
X30159Y565407D01*
X29658Y566122D01*
X29221Y566878D01*
X28852Y567670D01*
X28554Y568490D01*
X28328Y569334D01*
X28176Y570194D01*
X28100Y571063D01*
X28100Y571937D01*
X28176Y572807D01*
X28328Y573666D01*
X28554Y574510D01*
X28852Y575330D01*
X29221Y576122D01*
X29658Y576878D01*
X30159Y577593D01*
X30720Y578262D01*
X31338Y578880D01*
X32007Y579441D01*
X32722Y579942D01*
X33478Y580379D01*
X34270Y580748D01*
X35090Y581046D01*
X35934Y581272D01*
X36794Y581424D01*
X37663Y581500D01*
X38537Y581500D01*
X39407Y581424D01*
X40266Y581272D01*
X41110Y581046D01*
X41930Y580748D01*
X42722Y580379D01*
X43478Y579942D01*
X44193Y579441D01*
X44862Y578880D01*
X45480Y578262D01*
X46041Y577593D01*
X46542Y576878D01*
X46979Y576122D01*
X47348Y575330D01*
X47646Y574510D01*
X47872Y573666D01*
X48024Y572807D01*
X48100Y571937D01*
X48100Y571063D01*
X48100Y469463D02*
X48024Y468594D01*
X47872Y467734D01*
X47646Y466890D01*
X47348Y466070D01*
X46979Y465278D01*
X46542Y464522D01*
X46041Y463807D01*
X45480Y463138D01*
X44862Y462520D01*
X44193Y461959D01*
X43478Y461458D01*
X42722Y461021D01*
X41930Y460652D01*
X41110Y460354D01*
X40266Y460128D01*
X39407Y459976D01*
X38537Y459900D01*
X37663Y459900D01*
X36794Y459976D01*
X35934Y460128D01*
X35090Y460354D01*
X34270Y460652D01*
X33478Y461021D01*
X32722Y461458D01*
X32007Y461959D01*
X31338Y462520D01*
X30720Y463138D01*
X30159Y463807D01*
X29658Y464522D01*
X29221Y465278D01*
X28852Y466070D01*
X28554Y466890D01*
X28328Y467734D01*
X28176Y468594D01*
X28100Y469463D01*
X28100Y470337D01*
X28176Y471207D01*
X28328Y472066D01*
X28554Y472910D01*
X28852Y473730D01*
X29221Y474522D01*
X29658Y475278D01*
X30159Y475993D01*
X30720Y476662D01*
X31338Y477280D01*
X32007Y477841D01*
X32722Y478342D01*
X33478Y478779D01*
X34270Y479148D01*
X35090Y479446D01*
X35934Y479672D01*
X36794Y479824D01*
X37663Y479900D01*
X38537Y479900D01*
X39407Y479824D01*
X40266Y479672D01*
X41110Y479446D01*
X41930Y479148D01*
X42722Y478779D01*
X43478Y478342D01*
X44193Y477841D01*
X44862Y477280D01*
X45480Y476662D01*
X46041Y475993D01*
X46542Y475278D01*
X46979Y474522D01*
X47348Y473730D01*
X47646Y472910D01*
X47872Y472066D01*
X48024Y471207D01*
X48100Y470337D01*
X48100Y469463D01*
X95170Y571219D02*
X95107Y570661D01*
X94982Y570114D01*
X94797Y569584D01*
X94553Y569078D01*
X94254Y568602D01*
X93904Y568163D01*
X93507Y567766D01*
X93068Y567416D01*
X92592Y567117D01*
X92086Y566873D01*
X91556Y566688D01*
X91009Y566563D01*
X90451Y566500D01*
X89889Y566500D01*
X89331Y566563D01*
X88784Y566688D01*
X88254Y566873D01*
X87748Y567117D01*
X87272Y567416D01*
X86833Y567766D01*
X86436Y568163D01*
X86086Y568602D01*
X85787Y569078D01*
X85543Y569584D01*
X85358Y570114D01*
X85233Y570661D01*
X85170Y571219D01*
X85170Y571781D01*
X85233Y572339D01*
X85358Y572886D01*
X85543Y573416D01*
X85787Y573922D01*
X86086Y574398D01*
X86436Y574837D01*
X86833Y575234D01*
X87272Y575584D01*
X87748Y575883D01*
X88254Y576127D01*
X88784Y576312D01*
X89331Y576437D01*
X89889Y576500D01*
X90451Y576500D01*
X91009Y576437D01*
X91556Y576312D01*
X92086Y576127D01*
X92592Y575883D01*
X93068Y575584D01*
X93507Y575234D01*
X93904Y574837D01*
X94254Y574398D01*
X94553Y573922D01*
X94797Y573416D01*
X94982Y572886D01*
X95107Y572339D01*
X95170Y571781D01*
X95170Y571219D01*
X95170Y469619D02*
X95107Y469061D01*
X94982Y468514D01*
X94797Y467984D01*
X94553Y467478D01*
X94254Y467002D01*
X93904Y466563D01*
X93507Y466166D01*
X93068Y465816D01*
X92592Y465517D01*
X92086Y465273D01*
X91556Y465088D01*
X91009Y464963D01*
X90451Y464900D01*
X89889Y464900D01*
X89331Y464963D01*
X88784Y465088D01*
X88254Y465273D01*
X87748Y465517D01*
X87272Y465816D01*
X86833Y466166D01*
X86436Y466563D01*
X86086Y467002D01*
X85787Y467478D01*
X85543Y467984D01*
X85358Y468514D01*
X85233Y469061D01*
X85170Y469619D01*
X85170Y470181D01*
X85233Y470739D01*
X85358Y471286D01*
X85543Y471816D01*
X85787Y472322D01*
X86086Y472798D01*
X86436Y473237D01*
X86833Y473634D01*
X87272Y473984D01*
X87748Y474283D01*
X88254Y474527D01*
X88784Y474712D01*
X89331Y474837D01*
X89889Y474900D01*
X90451Y474900D01*
X91009Y474837D01*
X91556Y474712D01*
X92086Y474527D01*
X92592Y474283D01*
X93068Y473984D01*
X93507Y473634D01*
X93904Y473237D01*
X94254Y472798D01*
X94553Y472322D01*
X94797Y471816D01*
X94982Y471286D01*
X95107Y470739D01*
X95170Y470181D01*
X95170Y469619D01*
X53157Y546350D02*
X52735Y546406D01*
X52323Y546516D01*
X51929Y546679D01*
X51561Y546892D01*
X51223Y547151D01*
X50921Y547453D01*
X50662Y547791D01*
X50449Y548159D01*
X50286Y548553D01*
X50176Y548965D01*
X50120Y549387D01*
X50120Y549813D01*
X50176Y550235D01*
X50286Y550647D01*
X50449Y551041D01*
X50662Y551409D01*
X50921Y551747D01*
X51223Y552049D01*
X51561Y552308D01*
X51929Y552521D01*
X52323Y552684D01*
X52735Y552794D01*
X53157Y552850D01*
X53583Y552850D01*
X54005Y552794D01*
X54417Y552684D01*
X54811Y552521D01*
X55179Y552308D01*
X55517Y552049D01*
X55819Y551747D01*
X56078Y551409D01*
X56291Y551041D01*
X56454Y550647D01*
X56564Y550235D01*
X56620Y549813D01*
X56620Y549387D01*
X56564Y548965D01*
X56454Y548553D01*
X56291Y548159D01*
X56078Y547791D01*
X55819Y547453D01*
X55517Y547151D01*
X55179Y546892D01*
X54811Y546679D01*
X54417Y546516D01*
X54005Y546406D01*
X53583Y546350D01*
X53157Y546350D01*
X53157Y488550D02*
X52735Y488606D01*
X52323Y488716D01*
X51929Y488879D01*
X51561Y489092D01*
X51223Y489351D01*
X50921Y489653D01*
X50662Y489991D01*
X50449Y490359D01*
X50286Y490753D01*
X50176Y491165D01*
X50120Y491587D01*
X50120Y492013D01*
X50176Y492435D01*
X50286Y492847D01*
X50449Y493241D01*
X50662Y493609D01*
X50921Y493947D01*
X51223Y494249D01*
X51561Y494508D01*
X51929Y494721D01*
X52323Y494884D01*
X52735Y494994D01*
X53157Y495050D01*
X53583Y495050D01*
X54005Y494994D01*
X54417Y494884D01*
X54811Y494721D01*
X55179Y494508D01*
X55517Y494249D01*
X55819Y493947D01*
X56078Y493609D01*
X56291Y493241D01*
X56454Y492847D01*
X56564Y492435D01*
X56620Y492013D01*
X56620Y491587D01*
X56564Y491165D01*
X56454Y490753D01*
X56291Y490359D01*
X56078Y489991D01*
X55819Y489653D01*
X55517Y489351D01*
X55179Y489092D01*
X54811Y488879D01*
X54417Y488716D01*
X54005Y488606D01*
X53583Y488550D01*
X53157Y488550D01*
M02*
