G04 EAGLE Gerber RS-274X export*
G75*
%MOMM*%
%FSLAX34Y34*%
%LPD*%
%INSilkscreen Top*%
%IPPOS*%
%AMOC8*
5,1,8,0,0,1.08239X$1,22.5*%
G01*
%ADD10C,0.050800*%
%ADD11C,0.152400*%
%ADD12C,0.203200*%
%ADD13C,0.127000*%
%ADD14C,0.200000*%


D10*
X8636Y546354D02*
X8636Y548217D01*
X8634Y548287D01*
X8628Y548356D01*
X8618Y548425D01*
X8605Y548493D01*
X8587Y548561D01*
X8566Y548627D01*
X8541Y548692D01*
X8513Y548756D01*
X8481Y548818D01*
X8446Y548878D01*
X8407Y548936D01*
X8365Y548991D01*
X8320Y549045D01*
X8272Y549095D01*
X8222Y549143D01*
X8168Y549188D01*
X8113Y549230D01*
X8055Y549269D01*
X7995Y549304D01*
X7933Y549336D01*
X7869Y549364D01*
X7804Y549389D01*
X7738Y549410D01*
X7670Y549428D01*
X7602Y549441D01*
X7533Y549451D01*
X7464Y549457D01*
X7394Y549459D01*
X7394Y549458D02*
X6773Y549458D01*
X6773Y549459D02*
X6703Y549457D01*
X6634Y549451D01*
X6565Y549441D01*
X6497Y549428D01*
X6429Y549410D01*
X6363Y549389D01*
X6298Y549364D01*
X6234Y549336D01*
X6172Y549304D01*
X6112Y549269D01*
X6054Y549230D01*
X5999Y549188D01*
X5945Y549143D01*
X5895Y549095D01*
X5847Y549045D01*
X5802Y548991D01*
X5760Y548936D01*
X5721Y548878D01*
X5686Y548818D01*
X5654Y548756D01*
X5626Y548692D01*
X5601Y548627D01*
X5580Y548561D01*
X5562Y548493D01*
X5549Y548425D01*
X5539Y548356D01*
X5533Y548287D01*
X5531Y548217D01*
X5532Y548217D02*
X5532Y546354D01*
X3048Y546354D01*
X3048Y549458D01*
X3048Y551530D02*
X8636Y553393D01*
X3048Y555255D01*
X3048Y528574D02*
X8636Y528574D01*
X3048Y528574D02*
X3048Y530126D01*
X3050Y530202D01*
X3055Y530278D01*
X3065Y530354D01*
X3078Y530429D01*
X3095Y530503D01*
X3115Y530577D01*
X3139Y530649D01*
X3166Y530720D01*
X3197Y530790D01*
X3231Y530858D01*
X3269Y530924D01*
X3310Y530988D01*
X3353Y531051D01*
X3400Y531111D01*
X3450Y531168D01*
X3503Y531223D01*
X3558Y531276D01*
X3615Y531326D01*
X3675Y531373D01*
X3738Y531416D01*
X3802Y531457D01*
X3868Y531495D01*
X3936Y531529D01*
X4006Y531560D01*
X4077Y531587D01*
X4150Y531611D01*
X4223Y531631D01*
X4297Y531648D01*
X4372Y531661D01*
X4448Y531671D01*
X4524Y531676D01*
X4600Y531678D01*
X7084Y531678D01*
X7160Y531676D01*
X7236Y531671D01*
X7312Y531661D01*
X7387Y531648D01*
X7461Y531631D01*
X7535Y531611D01*
X7607Y531587D01*
X7678Y531560D01*
X7748Y531529D01*
X7816Y531495D01*
X7882Y531457D01*
X7946Y531416D01*
X8009Y531373D01*
X8069Y531326D01*
X8126Y531276D01*
X8181Y531223D01*
X8234Y531168D01*
X8284Y531111D01*
X8331Y531051D01*
X8374Y530988D01*
X8415Y530924D01*
X8453Y530858D01*
X8487Y530790D01*
X8518Y530720D01*
X8545Y530649D01*
X8569Y530577D01*
X8589Y530503D01*
X8606Y530429D01*
X8619Y530354D01*
X8629Y530278D01*
X8634Y530202D01*
X8636Y530126D01*
X8636Y528574D01*
X6463Y534299D02*
X6463Y538024D01*
X8636Y512064D02*
X3048Y512064D01*
X3048Y513616D01*
X3050Y513692D01*
X3055Y513768D01*
X3065Y513844D01*
X3078Y513919D01*
X3095Y513993D01*
X3115Y514067D01*
X3139Y514139D01*
X3166Y514210D01*
X3197Y514280D01*
X3231Y514348D01*
X3269Y514414D01*
X3310Y514478D01*
X3353Y514541D01*
X3400Y514601D01*
X3450Y514658D01*
X3503Y514713D01*
X3558Y514766D01*
X3615Y514816D01*
X3675Y514863D01*
X3738Y514906D01*
X3802Y514947D01*
X3868Y514985D01*
X3936Y515019D01*
X4006Y515050D01*
X4077Y515077D01*
X4150Y515101D01*
X4223Y515121D01*
X4297Y515138D01*
X4372Y515151D01*
X4448Y515161D01*
X4524Y515166D01*
X4600Y515168D01*
X7084Y515168D01*
X7160Y515166D01*
X7236Y515161D01*
X7312Y515151D01*
X7387Y515138D01*
X7461Y515121D01*
X7535Y515101D01*
X7607Y515077D01*
X7678Y515050D01*
X7748Y515019D01*
X7816Y514985D01*
X7882Y514947D01*
X7946Y514906D01*
X8009Y514863D01*
X8069Y514816D01*
X8126Y514766D01*
X8181Y514713D01*
X8234Y514658D01*
X8284Y514601D01*
X8331Y514541D01*
X8374Y514478D01*
X8415Y514414D01*
X8453Y514348D01*
X8487Y514280D01*
X8518Y514210D01*
X8545Y514139D01*
X8569Y514067D01*
X8589Y513993D01*
X8606Y513919D01*
X8619Y513844D01*
X8629Y513768D01*
X8634Y513692D01*
X8636Y513616D01*
X8636Y512064D01*
X6463Y517789D02*
X6463Y521514D01*
X8326Y519651D02*
X4600Y519651D01*
X5532Y489768D02*
X5532Y488837D01*
X5532Y489768D02*
X8636Y489768D01*
X8636Y487906D01*
X8634Y487836D01*
X8628Y487767D01*
X8618Y487698D01*
X8605Y487630D01*
X8587Y487562D01*
X8566Y487496D01*
X8541Y487431D01*
X8513Y487367D01*
X8481Y487305D01*
X8446Y487245D01*
X8407Y487187D01*
X8365Y487132D01*
X8320Y487078D01*
X8272Y487028D01*
X8222Y486980D01*
X8168Y486935D01*
X8113Y486893D01*
X8055Y486854D01*
X7995Y486819D01*
X7933Y486787D01*
X7869Y486759D01*
X7804Y486734D01*
X7738Y486713D01*
X7670Y486695D01*
X7602Y486682D01*
X7533Y486672D01*
X7464Y486666D01*
X7394Y486664D01*
X4290Y486664D01*
X4220Y486666D01*
X4151Y486672D01*
X4082Y486682D01*
X4014Y486695D01*
X3946Y486713D01*
X3880Y486734D01*
X3815Y486759D01*
X3751Y486787D01*
X3689Y486819D01*
X3629Y486854D01*
X3571Y486893D01*
X3516Y486935D01*
X3462Y486980D01*
X3412Y487028D01*
X3364Y487078D01*
X3319Y487132D01*
X3277Y487187D01*
X3238Y487245D01*
X3203Y487305D01*
X3171Y487367D01*
X3143Y487431D01*
X3118Y487496D01*
X3097Y487562D01*
X3079Y487630D01*
X3066Y487698D01*
X3056Y487767D01*
X3050Y487836D01*
X3048Y487906D01*
X3048Y489768D01*
X3048Y492516D02*
X8636Y492516D01*
X8636Y495621D02*
X3048Y492516D01*
X3048Y495621D02*
X8636Y495621D01*
X8636Y498368D02*
X3048Y498368D01*
X3048Y499920D01*
X3050Y499996D01*
X3055Y500072D01*
X3065Y500148D01*
X3078Y500223D01*
X3095Y500297D01*
X3115Y500371D01*
X3139Y500443D01*
X3166Y500514D01*
X3197Y500584D01*
X3231Y500652D01*
X3269Y500718D01*
X3310Y500782D01*
X3353Y500845D01*
X3400Y500905D01*
X3450Y500962D01*
X3503Y501017D01*
X3558Y501070D01*
X3615Y501120D01*
X3675Y501167D01*
X3738Y501210D01*
X3802Y501251D01*
X3868Y501289D01*
X3936Y501323D01*
X4006Y501354D01*
X4077Y501381D01*
X4150Y501405D01*
X4223Y501425D01*
X4297Y501442D01*
X4372Y501455D01*
X4448Y501465D01*
X4524Y501470D01*
X4600Y501472D01*
X4600Y501473D02*
X7084Y501473D01*
X7084Y501472D02*
X7160Y501470D01*
X7236Y501465D01*
X7312Y501455D01*
X7387Y501442D01*
X7461Y501425D01*
X7535Y501405D01*
X7607Y501381D01*
X7678Y501354D01*
X7748Y501323D01*
X7816Y501289D01*
X7882Y501251D01*
X7946Y501210D01*
X8009Y501167D01*
X8069Y501120D01*
X8126Y501070D01*
X8181Y501017D01*
X8234Y500962D01*
X8284Y500905D01*
X8331Y500845D01*
X8374Y500782D01*
X8415Y500718D01*
X8453Y500652D01*
X8487Y500584D01*
X8518Y500514D01*
X8545Y500443D01*
X8569Y500371D01*
X8589Y500297D01*
X8606Y500223D01*
X8619Y500148D01*
X8629Y500072D01*
X8634Y499996D01*
X8636Y499920D01*
X8636Y498368D01*
D11*
X38100Y476250D02*
X38100Y565150D01*
D10*
X35306Y504388D02*
X35306Y503146D01*
X35304Y503076D01*
X35298Y503007D01*
X35288Y502938D01*
X35275Y502870D01*
X35257Y502802D01*
X35236Y502736D01*
X35211Y502671D01*
X35183Y502607D01*
X35151Y502545D01*
X35116Y502485D01*
X35077Y502427D01*
X35035Y502372D01*
X34990Y502318D01*
X34942Y502268D01*
X34892Y502220D01*
X34838Y502175D01*
X34783Y502133D01*
X34725Y502094D01*
X34665Y502059D01*
X34603Y502027D01*
X34539Y501999D01*
X34474Y501974D01*
X34408Y501953D01*
X34340Y501935D01*
X34272Y501922D01*
X34203Y501912D01*
X34134Y501906D01*
X34064Y501904D01*
X30960Y501904D01*
X30890Y501906D01*
X30821Y501912D01*
X30752Y501922D01*
X30684Y501935D01*
X30616Y501953D01*
X30550Y501974D01*
X30485Y501999D01*
X30421Y502027D01*
X30359Y502059D01*
X30299Y502094D01*
X30241Y502133D01*
X30186Y502175D01*
X30132Y502220D01*
X30082Y502268D01*
X30034Y502318D01*
X29989Y502372D01*
X29947Y502427D01*
X29908Y502485D01*
X29873Y502545D01*
X29841Y502607D01*
X29813Y502671D01*
X29788Y502736D01*
X29767Y502802D01*
X29749Y502870D01*
X29736Y502938D01*
X29726Y503007D01*
X29720Y503076D01*
X29718Y503146D01*
X29718Y504388D01*
X31581Y506620D02*
X34375Y506620D01*
X34433Y506622D01*
X34492Y506627D01*
X34549Y506636D01*
X34607Y506649D01*
X34663Y506666D01*
X34718Y506685D01*
X34771Y506709D01*
X34824Y506735D01*
X34874Y506765D01*
X34922Y506798D01*
X34968Y506834D01*
X35012Y506872D01*
X35054Y506914D01*
X35092Y506958D01*
X35128Y507004D01*
X35161Y507052D01*
X35191Y507102D01*
X35217Y507155D01*
X35241Y507208D01*
X35260Y507263D01*
X35277Y507319D01*
X35290Y507377D01*
X35299Y507434D01*
X35304Y507493D01*
X35306Y507551D01*
X35306Y509103D01*
X31581Y509103D01*
X31581Y511091D02*
X31581Y512954D01*
X29718Y511712D02*
X34375Y511712D01*
X34433Y511714D01*
X34492Y511719D01*
X34549Y511728D01*
X34607Y511741D01*
X34663Y511758D01*
X34718Y511777D01*
X34771Y511801D01*
X34824Y511827D01*
X34874Y511857D01*
X34922Y511890D01*
X34968Y511926D01*
X35012Y511964D01*
X35054Y512006D01*
X35092Y512050D01*
X35128Y512096D01*
X35161Y512144D01*
X35191Y512195D01*
X35217Y512247D01*
X35241Y512300D01*
X35260Y512355D01*
X35277Y512411D01*
X35290Y512469D01*
X35299Y512526D01*
X35304Y512585D01*
X35306Y512643D01*
X35306Y512954D01*
X35306Y518207D02*
X29718Y518207D01*
X35306Y518207D02*
X35306Y520691D01*
X35306Y522675D02*
X31581Y522675D01*
X30028Y522519D02*
X29718Y522519D01*
X29718Y522830D01*
X30028Y522830D01*
X30028Y522519D01*
X31581Y525201D02*
X35306Y525201D01*
X31581Y525201D02*
X31581Y527995D01*
X31583Y528053D01*
X31588Y528112D01*
X31597Y528169D01*
X31610Y528227D01*
X31627Y528283D01*
X31646Y528338D01*
X31670Y528391D01*
X31696Y528444D01*
X31726Y528494D01*
X31759Y528542D01*
X31795Y528588D01*
X31833Y528632D01*
X31875Y528674D01*
X31919Y528712D01*
X31965Y528748D01*
X32013Y528781D01*
X32063Y528811D01*
X32116Y528837D01*
X32169Y528861D01*
X32224Y528880D01*
X32280Y528897D01*
X32338Y528910D01*
X32395Y528919D01*
X32454Y528924D01*
X32512Y528926D01*
X35306Y528926D01*
X35306Y527064D02*
X31581Y527064D01*
X31581Y531453D02*
X35306Y531453D01*
X30028Y531298D02*
X29718Y531298D01*
X29718Y531608D01*
X30028Y531608D01*
X30028Y531298D01*
X31581Y533219D02*
X31581Y535082D01*
X29718Y533840D02*
X34375Y533840D01*
X34375Y533841D02*
X34433Y533843D01*
X34492Y533848D01*
X34549Y533857D01*
X34607Y533870D01*
X34663Y533887D01*
X34718Y533906D01*
X34771Y533930D01*
X34824Y533956D01*
X34874Y533986D01*
X34922Y534019D01*
X34968Y534055D01*
X35012Y534093D01*
X35054Y534135D01*
X35092Y534179D01*
X35128Y534225D01*
X35161Y534273D01*
X35191Y534324D01*
X35217Y534376D01*
X35241Y534429D01*
X35260Y534484D01*
X35277Y534540D01*
X35290Y534598D01*
X35299Y534655D01*
X35304Y534714D01*
X35306Y534772D01*
X35306Y535082D01*
X22606Y487773D02*
X19278Y486664D01*
X19278Y488883D02*
X22606Y487773D01*
X18723Y490842D02*
X17614Y492228D01*
X22606Y492228D01*
X22606Y490842D02*
X22606Y493615D01*
X22606Y495555D02*
X22329Y495555D01*
X22329Y495832D01*
X22606Y495832D01*
X22606Y495555D01*
X18723Y497772D02*
X17614Y499158D01*
X22606Y499158D01*
X22606Y497772D02*
X22606Y500545D01*
X22606Y505501D02*
X17614Y505501D01*
X22606Y505501D02*
X22606Y506888D01*
X22604Y506945D01*
X22598Y507001D01*
X22589Y507057D01*
X22575Y507112D01*
X22558Y507167D01*
X22537Y507219D01*
X22513Y507271D01*
X22485Y507320D01*
X22454Y507368D01*
X22419Y507413D01*
X22382Y507456D01*
X22342Y507496D01*
X22299Y507533D01*
X22254Y507568D01*
X22206Y507599D01*
X22157Y507627D01*
X22105Y507651D01*
X22053Y507672D01*
X21998Y507689D01*
X21943Y507703D01*
X21887Y507712D01*
X21831Y507718D01*
X21774Y507720D01*
X20110Y507720D01*
X20053Y507718D01*
X19997Y507712D01*
X19941Y507703D01*
X19886Y507689D01*
X19831Y507672D01*
X19779Y507651D01*
X19727Y507627D01*
X19678Y507599D01*
X19630Y507568D01*
X19585Y507533D01*
X19542Y507496D01*
X19502Y507456D01*
X19465Y507413D01*
X19430Y507368D01*
X19399Y507320D01*
X19371Y507271D01*
X19347Y507219D01*
X19326Y507167D01*
X19309Y507112D01*
X19295Y507057D01*
X19286Y507001D01*
X19280Y506945D01*
X19278Y506888D01*
X19278Y505501D01*
X24270Y509599D02*
X24270Y510154D01*
X19278Y511818D01*
X19278Y509599D02*
X22606Y510708D01*
X22606Y516582D02*
X17614Y516582D01*
X17614Y517968D01*
X17616Y518041D01*
X17622Y518113D01*
X17631Y518185D01*
X17644Y518256D01*
X17661Y518327D01*
X17682Y518397D01*
X17706Y518465D01*
X17734Y518532D01*
X17765Y518598D01*
X17800Y518662D01*
X17838Y518723D01*
X17879Y518783D01*
X17923Y518841D01*
X17970Y518896D01*
X18020Y518949D01*
X18073Y518999D01*
X18128Y519046D01*
X18186Y519090D01*
X18246Y519131D01*
X18308Y519169D01*
X18371Y519204D01*
X18437Y519235D01*
X18504Y519263D01*
X18572Y519287D01*
X18642Y519308D01*
X18713Y519325D01*
X18784Y519338D01*
X18856Y519347D01*
X18928Y519353D01*
X19001Y519355D01*
X21219Y519355D01*
X21292Y519353D01*
X21364Y519347D01*
X21436Y519338D01*
X21507Y519325D01*
X21578Y519308D01*
X21648Y519287D01*
X21716Y519263D01*
X21783Y519235D01*
X21849Y519204D01*
X21913Y519169D01*
X21974Y519131D01*
X22034Y519090D01*
X22092Y519046D01*
X22147Y518999D01*
X22200Y518949D01*
X22250Y518896D01*
X22297Y518841D01*
X22341Y518783D01*
X22382Y518723D01*
X22420Y518662D01*
X22455Y518598D01*
X22486Y518532D01*
X22514Y518465D01*
X22538Y518397D01*
X22559Y518327D01*
X22576Y518256D01*
X22589Y518185D01*
X22598Y518113D01*
X22604Y518041D01*
X22606Y517968D01*
X22606Y516582D01*
X21497Y521644D02*
X20387Y521644D01*
X20321Y521646D01*
X20256Y521652D01*
X20191Y521661D01*
X20127Y521675D01*
X20063Y521692D01*
X20001Y521713D01*
X19940Y521738D01*
X19881Y521766D01*
X19823Y521798D01*
X19767Y521833D01*
X19714Y521872D01*
X19663Y521913D01*
X19615Y521957D01*
X19569Y522004D01*
X19526Y522054D01*
X19486Y522106D01*
X19449Y522161D01*
X19416Y522218D01*
X19386Y522276D01*
X19359Y522336D01*
X19336Y522398D01*
X19317Y522461D01*
X19302Y522525D01*
X19290Y522589D01*
X19282Y522655D01*
X19278Y522720D01*
X19278Y522786D01*
X19282Y522851D01*
X19290Y522917D01*
X19302Y522981D01*
X19317Y523045D01*
X19336Y523108D01*
X19359Y523170D01*
X19386Y523230D01*
X19416Y523288D01*
X19449Y523345D01*
X19486Y523400D01*
X19526Y523452D01*
X19569Y523502D01*
X19615Y523549D01*
X19663Y523593D01*
X19714Y523634D01*
X19767Y523673D01*
X19823Y523708D01*
X19881Y523740D01*
X19940Y523768D01*
X20001Y523793D01*
X20063Y523814D01*
X20127Y523831D01*
X20191Y523845D01*
X20256Y523854D01*
X20321Y523860D01*
X20387Y523862D01*
X20387Y523863D02*
X21497Y523863D01*
X21497Y523862D02*
X21563Y523860D01*
X21628Y523854D01*
X21693Y523845D01*
X21757Y523831D01*
X21821Y523814D01*
X21883Y523793D01*
X21944Y523768D01*
X22003Y523740D01*
X22061Y523708D01*
X22117Y523673D01*
X22170Y523634D01*
X22221Y523593D01*
X22269Y523549D01*
X22315Y523502D01*
X22358Y523452D01*
X22398Y523400D01*
X22435Y523345D01*
X22468Y523288D01*
X22498Y523230D01*
X22525Y523170D01*
X22548Y523108D01*
X22567Y523045D01*
X22582Y522981D01*
X22594Y522917D01*
X22602Y522851D01*
X22606Y522786D01*
X22606Y522720D01*
X22602Y522655D01*
X22594Y522589D01*
X22582Y522525D01*
X22567Y522461D01*
X22548Y522398D01*
X22525Y522336D01*
X22498Y522276D01*
X22468Y522218D01*
X22435Y522161D01*
X22398Y522106D01*
X22358Y522054D01*
X22315Y522004D01*
X22269Y521957D01*
X22221Y521913D01*
X22170Y521872D01*
X22117Y521833D01*
X22061Y521798D01*
X22003Y521766D01*
X21944Y521738D01*
X21883Y521713D01*
X21821Y521692D01*
X21757Y521675D01*
X21693Y521661D01*
X21628Y521652D01*
X21563Y521646D01*
X21497Y521644D01*
X22606Y526738D02*
X22606Y528125D01*
X22606Y526738D02*
X22604Y526681D01*
X22598Y526625D01*
X22589Y526569D01*
X22575Y526514D01*
X22558Y526459D01*
X22537Y526407D01*
X22513Y526355D01*
X22485Y526306D01*
X22454Y526258D01*
X22419Y526213D01*
X22382Y526170D01*
X22342Y526130D01*
X22299Y526093D01*
X22254Y526058D01*
X22206Y526027D01*
X22157Y525999D01*
X22105Y525975D01*
X22053Y525954D01*
X21998Y525937D01*
X21943Y525923D01*
X21887Y525914D01*
X21831Y525908D01*
X21774Y525906D01*
X20110Y525906D01*
X20053Y525908D01*
X19997Y525914D01*
X19941Y525923D01*
X19886Y525937D01*
X19831Y525954D01*
X19779Y525975D01*
X19727Y525999D01*
X19678Y526027D01*
X19630Y526058D01*
X19585Y526093D01*
X19542Y526130D01*
X19502Y526170D01*
X19465Y526213D01*
X19430Y526258D01*
X19399Y526306D01*
X19371Y526355D01*
X19347Y526407D01*
X19326Y526459D01*
X19309Y526514D01*
X19295Y526569D01*
X19286Y526625D01*
X19280Y526681D01*
X19278Y526738D01*
X19278Y528125D01*
X23438Y528125D01*
X23495Y528123D01*
X23551Y528117D01*
X23607Y528108D01*
X23662Y528094D01*
X23717Y528077D01*
X23769Y528056D01*
X23821Y528032D01*
X23870Y528004D01*
X23918Y527973D01*
X23963Y527938D01*
X24006Y527901D01*
X24046Y527861D01*
X24083Y527818D01*
X24118Y527773D01*
X24149Y527725D01*
X24177Y527676D01*
X24201Y527624D01*
X24222Y527572D01*
X24239Y527517D01*
X24253Y527462D01*
X24262Y527406D01*
X24268Y527350D01*
X24270Y527293D01*
X24270Y526184D01*
X20665Y531332D02*
X20665Y532580D01*
X20664Y531332D02*
X20666Y531271D01*
X20672Y531210D01*
X20681Y531150D01*
X20695Y531091D01*
X20712Y531032D01*
X20732Y530975D01*
X20756Y530919D01*
X20784Y530864D01*
X20815Y530812D01*
X20849Y530761D01*
X20887Y530713D01*
X20927Y530667D01*
X20970Y530624D01*
X21016Y530584D01*
X21064Y530546D01*
X21115Y530512D01*
X21167Y530481D01*
X21222Y530453D01*
X21278Y530429D01*
X21335Y530409D01*
X21394Y530392D01*
X21453Y530378D01*
X21513Y530369D01*
X21574Y530363D01*
X21635Y530361D01*
X21696Y530363D01*
X21757Y530369D01*
X21817Y530378D01*
X21876Y530392D01*
X21935Y530409D01*
X21992Y530429D01*
X22048Y530453D01*
X22103Y530481D01*
X22155Y530512D01*
X22206Y530546D01*
X22254Y530584D01*
X22300Y530624D01*
X22343Y530667D01*
X22383Y530713D01*
X22421Y530761D01*
X22455Y530812D01*
X22486Y530864D01*
X22514Y530919D01*
X22538Y530975D01*
X22558Y531032D01*
X22575Y531091D01*
X22589Y531150D01*
X22598Y531210D01*
X22604Y531271D01*
X22606Y531332D01*
X22606Y532580D01*
X20110Y532580D01*
X20053Y532578D01*
X19997Y532572D01*
X19941Y532563D01*
X19886Y532549D01*
X19831Y532532D01*
X19779Y532511D01*
X19727Y532487D01*
X19678Y532459D01*
X19630Y532428D01*
X19585Y532393D01*
X19542Y532356D01*
X19502Y532316D01*
X19465Y532273D01*
X19430Y532228D01*
X19399Y532180D01*
X19371Y532131D01*
X19347Y532079D01*
X19326Y532027D01*
X19309Y531972D01*
X19295Y531917D01*
X19286Y531861D01*
X19280Y531805D01*
X19278Y531748D01*
X19278Y530639D01*
X19278Y535009D02*
X22606Y535009D01*
X19278Y535009D02*
X19278Y536395D01*
X19280Y536452D01*
X19286Y536508D01*
X19295Y536564D01*
X19309Y536619D01*
X19326Y536674D01*
X19347Y536726D01*
X19371Y536778D01*
X19399Y536827D01*
X19430Y536875D01*
X19465Y536920D01*
X19502Y536963D01*
X19542Y537003D01*
X19585Y537040D01*
X19630Y537075D01*
X19678Y537106D01*
X19727Y537134D01*
X19779Y537158D01*
X19831Y537179D01*
X19886Y537196D01*
X19941Y537210D01*
X19997Y537219D01*
X20053Y537225D01*
X20110Y537227D01*
X22606Y537227D01*
X22606Y539734D02*
X17614Y539734D01*
X20387Y541398D01*
X17614Y543062D01*
X22606Y543062D01*
X20387Y546566D02*
X20387Y548230D01*
X20387Y546566D02*
X20385Y546502D01*
X20380Y546437D01*
X20370Y546373D01*
X20357Y546310D01*
X20340Y546248D01*
X20320Y546187D01*
X20296Y546127D01*
X20269Y546068D01*
X20238Y546012D01*
X20205Y545957D01*
X20168Y545904D01*
X20128Y545853D01*
X20085Y545805D01*
X20039Y545759D01*
X19991Y545716D01*
X19940Y545676D01*
X19887Y545639D01*
X19833Y545606D01*
X19776Y545575D01*
X19717Y545548D01*
X19657Y545524D01*
X19596Y545504D01*
X19534Y545487D01*
X19471Y545474D01*
X19407Y545464D01*
X19342Y545459D01*
X19278Y545457D01*
X19278Y545456D02*
X19001Y545456D01*
X18928Y545458D01*
X18856Y545464D01*
X18784Y545473D01*
X18713Y545486D01*
X18642Y545503D01*
X18572Y545524D01*
X18504Y545548D01*
X18437Y545576D01*
X18371Y545607D01*
X18307Y545642D01*
X18246Y545680D01*
X18186Y545721D01*
X18128Y545765D01*
X18073Y545812D01*
X18020Y545862D01*
X17970Y545915D01*
X17923Y545970D01*
X17879Y546028D01*
X17838Y546088D01*
X17800Y546150D01*
X17765Y546213D01*
X17734Y546279D01*
X17706Y546346D01*
X17682Y546414D01*
X17661Y546484D01*
X17644Y546555D01*
X17631Y546626D01*
X17622Y546698D01*
X17616Y546770D01*
X17614Y546843D01*
X17616Y546916D01*
X17622Y546988D01*
X17631Y547060D01*
X17644Y547131D01*
X17661Y547202D01*
X17682Y547272D01*
X17706Y547340D01*
X17734Y547407D01*
X17765Y547473D01*
X17800Y547537D01*
X17838Y547598D01*
X17879Y547658D01*
X17923Y547716D01*
X17970Y547771D01*
X18020Y547824D01*
X18073Y547874D01*
X18128Y547921D01*
X18186Y547965D01*
X18246Y548006D01*
X18308Y548044D01*
X18371Y548079D01*
X18437Y548110D01*
X18504Y548138D01*
X18572Y548162D01*
X18642Y548183D01*
X18713Y548200D01*
X18784Y548213D01*
X18856Y548222D01*
X18928Y548228D01*
X19001Y548230D01*
X20387Y548230D01*
X20479Y548228D01*
X20570Y548222D01*
X20661Y548213D01*
X20752Y548200D01*
X20842Y548183D01*
X20932Y548162D01*
X21020Y548138D01*
X21108Y548110D01*
X21194Y548078D01*
X21278Y548043D01*
X21362Y548005D01*
X21443Y547963D01*
X21523Y547917D01*
X21601Y547869D01*
X21676Y547817D01*
X21750Y547762D01*
X21821Y547704D01*
X21890Y547644D01*
X21956Y547580D01*
X22020Y547514D01*
X22080Y547445D01*
X22138Y547374D01*
X22193Y547300D01*
X22245Y547225D01*
X22293Y547147D01*
X22339Y547067D01*
X22381Y546986D01*
X22419Y546902D01*
X22454Y546818D01*
X22486Y546732D01*
X22514Y546644D01*
X22538Y546556D01*
X22559Y546466D01*
X22576Y546376D01*
X22589Y546285D01*
X22598Y546194D01*
X22604Y546103D01*
X22606Y546011D01*
X22606Y550406D02*
X22606Y552070D01*
X22604Y552134D01*
X22599Y552199D01*
X22589Y552263D01*
X22576Y552326D01*
X22559Y552388D01*
X22539Y552449D01*
X22515Y552509D01*
X22488Y552568D01*
X22457Y552625D01*
X22424Y552679D01*
X22387Y552732D01*
X22347Y552783D01*
X22304Y552831D01*
X22258Y552877D01*
X22210Y552920D01*
X22159Y552960D01*
X22106Y552997D01*
X22052Y553030D01*
X21995Y553061D01*
X21936Y553088D01*
X21876Y553112D01*
X21815Y553132D01*
X21753Y553149D01*
X21690Y553162D01*
X21626Y553172D01*
X21561Y553177D01*
X21497Y553179D01*
X21497Y553180D02*
X20942Y553180D01*
X20942Y553179D02*
X20878Y553177D01*
X20813Y553172D01*
X20749Y553162D01*
X20686Y553149D01*
X20624Y553132D01*
X20563Y553112D01*
X20503Y553088D01*
X20444Y553061D01*
X20388Y553030D01*
X20333Y552997D01*
X20280Y552960D01*
X20229Y552920D01*
X20181Y552877D01*
X20135Y552831D01*
X20092Y552783D01*
X20052Y552732D01*
X20015Y552679D01*
X19982Y552625D01*
X19951Y552568D01*
X19924Y552509D01*
X19900Y552449D01*
X19880Y552388D01*
X19863Y552326D01*
X19850Y552263D01*
X19840Y552199D01*
X19835Y552134D01*
X19833Y552070D01*
X19833Y550406D01*
X17614Y550406D01*
X17614Y553180D01*
D12*
X76200Y504190D02*
X76200Y476250D01*
X76200Y504190D02*
X88900Y504190D01*
X88900Y476250D01*
X76200Y476250D01*
X76200Y535940D02*
X76200Y563880D01*
X88900Y563880D01*
X88900Y535940D01*
X76200Y535940D01*
D11*
X120650Y552450D02*
X120650Y565150D01*
X120650Y552450D02*
X114300Y546100D01*
X101600Y546100D02*
X95250Y552450D01*
X114300Y546100D02*
X120650Y539750D01*
X120650Y527050D01*
X114300Y520700D01*
X101600Y520700D02*
X95250Y527050D01*
X95250Y539750D01*
X101600Y546100D01*
X101600Y571500D02*
X114300Y571500D01*
X120650Y565150D01*
X101600Y571500D02*
X95250Y565150D01*
X95250Y552450D01*
X114300Y520700D02*
X120650Y514350D01*
X120650Y501650D01*
X114300Y495300D01*
X101600Y495300D02*
X95250Y501650D01*
X95250Y514350D01*
X101600Y520700D01*
X120650Y488950D02*
X120650Y476250D01*
X114300Y469900D01*
X101600Y469900D01*
X95250Y476250D01*
X114300Y495300D02*
X120650Y488950D01*
X101600Y495300D02*
X95250Y488950D01*
X95250Y476250D01*
D13*
X104775Y575945D02*
X102235Y579120D01*
X113665Y579120D01*
X113665Y575945D02*
X113665Y582295D01*
X102235Y462915D02*
X111125Y460375D01*
X111125Y466725D01*
X108585Y464820D02*
X113665Y464820D01*
X44270Y565400D02*
X29270Y565400D01*
X29270Y476000D02*
X44270Y476000D01*
X3270Y565400D02*
X-9430Y565400D01*
X-9430Y476000D01*
X3270Y476000D01*
D14*
X77270Y554200D02*
X77272Y554263D01*
X77278Y554325D01*
X77288Y554387D01*
X77301Y554449D01*
X77319Y554509D01*
X77340Y554568D01*
X77365Y554626D01*
X77394Y554682D01*
X77426Y554736D01*
X77461Y554788D01*
X77499Y554837D01*
X77541Y554885D01*
X77585Y554929D01*
X77633Y554971D01*
X77682Y555009D01*
X77734Y555044D01*
X77788Y555076D01*
X77844Y555105D01*
X77902Y555130D01*
X77961Y555151D01*
X78021Y555169D01*
X78083Y555182D01*
X78145Y555192D01*
X78207Y555198D01*
X78270Y555200D01*
X78333Y555198D01*
X78395Y555192D01*
X78457Y555182D01*
X78519Y555169D01*
X78579Y555151D01*
X78638Y555130D01*
X78696Y555105D01*
X78752Y555076D01*
X78806Y555044D01*
X78858Y555009D01*
X78907Y554971D01*
X78955Y554929D01*
X78999Y554885D01*
X79041Y554837D01*
X79079Y554788D01*
X79114Y554736D01*
X79146Y554682D01*
X79175Y554626D01*
X79200Y554568D01*
X79221Y554509D01*
X79239Y554449D01*
X79252Y554387D01*
X79262Y554325D01*
X79268Y554263D01*
X79270Y554200D01*
X79268Y554137D01*
X79262Y554075D01*
X79252Y554013D01*
X79239Y553951D01*
X79221Y553891D01*
X79200Y553832D01*
X79175Y553774D01*
X79146Y553718D01*
X79114Y553664D01*
X79079Y553612D01*
X79041Y553563D01*
X78999Y553515D01*
X78955Y553471D01*
X78907Y553429D01*
X78858Y553391D01*
X78806Y553356D01*
X78752Y553324D01*
X78696Y553295D01*
X78638Y553270D01*
X78579Y553249D01*
X78519Y553231D01*
X78457Y553218D01*
X78395Y553208D01*
X78333Y553202D01*
X78270Y553200D01*
X78207Y553202D01*
X78145Y553208D01*
X78083Y553218D01*
X78021Y553231D01*
X77961Y553249D01*
X77902Y553270D01*
X77844Y553295D01*
X77788Y553324D01*
X77734Y553356D01*
X77682Y553391D01*
X77633Y553429D01*
X77585Y553471D01*
X77541Y553515D01*
X77499Y553563D01*
X77461Y553612D01*
X77426Y553664D01*
X77394Y553718D01*
X77365Y553774D01*
X77340Y553832D01*
X77319Y553891D01*
X77301Y553951D01*
X77288Y554013D01*
X77278Y554075D01*
X77272Y554137D01*
X77270Y554200D01*
M02*
