M48
;GenerationSoftware,Autodesk,EAGLE,9.6.2*%
;CreationDate,2023-11-09T22:59:34Z*%
FMAT,2
ICI,OFF
METRIC,TZ,000.000
T6C0.350
T5C0.600
T4C0.650
T3C1.000
T2C1.016
T1C2.000
%
G90
M71
T1
X3810Y57150
X3810Y46990
T2
X10795Y55880
X10795Y53340
X10795Y50800
X10795Y48260
T3
X9017Y57150
X9017Y46990
T4
X5337Y54960
X5337Y49180
T5
X5837Y56390
X1657Y56390
X1657Y47750
X5837Y47750
T6
X7747Y56642
X4953Y50800
X8530Y51056
X8382Y53213
X4572Y55499
X5182Y51823
M30